<?xml version="1.0" encoding="utf-8" standalone="no"?>
<!DOCTYPE svg PUBLIC "-//W3C//DTD SVG 1.1//EN"
  "http://www.w3.org/Graphics/SVG/1.1/DTD/svg11.dtd">
<svg xmlns:xlink="http://www.w3.org/1999/xlink" width="684pt" height="457.92pt" viewBox="0 0 684 457.92" xmlns="http://www.w3.org/2000/svg" version="1.1">
 <metadata>
  <rdf:RDF xmlns:dc="http://purl.org/dc/elements/1.1/" xmlns:cc="http://creativecommons.org/ns#" xmlns:rdf="http://www.w3.org/1999/02/22-rdf-syntax-ns#">
   <cc:Work>
    <dc:type rdf:resource="http://purl.org/dc/dcmitype/StillImage"/>
    <dc:date>2026-03-30T15:33:12.641474</dc:date>
    <dc:format>image/svg+xml</dc:format>
    <dc:creator>
     <cc:Agent>
      <dc:title>Matplotlib v3.10.3, https://matplotlib.org/</dc:title>
     </cc:Agent>
    </dc:creator>
   </cc:Work>
  </rdf:RDF>
 </metadata>
 <defs>
  <style type="text/css">*{stroke-linejoin: round; stroke-linecap: butt}</style>
 </defs>
 <g id="figure_1">
  <g id="patch_1">
   <path d="M 0 457.92 
L 684 457.92 
L 684 0 
L 0 0 
z
" style="fill: #ffffff"/>
  </g>
  <g id="axes_1">
   <g id="patch_2">
    <path d="M 49.05 115.308 
L 634.95 115.308 
Q 643.32 115.308 643.32 106.992 
L 643.32 40.464 
Q 643.32 32.148 634.95 32.148 
L 49.05 32.148 
Q 40.68 32.148 40.68 40.464 
L 40.68 106.992 
Q 40.68 115.308 49.05 115.308 
z
" clip-path="url(#p5864f55df7)" style="fill: #1565c0; opacity: 0.85; stroke: #ffffff; stroke-width: 2.5; stroke-linejoin: miter"/>
   </g>
   <g id="patch_3">
    <path d="M 76.95 204.012 
L 607.05 204.012 
Q 615.42 204.012 615.42 195.696 
L 615.42 129.168 
Q 615.42 120.852 607.05 120.852 
L 76.95 120.852 
Q 68.58 120.852 68.58 129.168 
L 68.58 195.696 
Q 68.58 204.012 76.95 204.012 
z
" clip-path="url(#p5864f55df7)" style="fill: #2e7d32; opacity: 0.85; stroke: #ffffff; stroke-width: 2.5; stroke-linejoin: miter"/>
   </g>
   <g id="patch_4">
    <path d="M 104.85 292.716 
L 579.15 292.716 
Q 587.52 292.716 587.52 284.4 
L 587.52 217.872 
Q 587.52 209.556 579.15 209.556 
L 104.85 209.556 
Q 96.48 209.556 96.48 217.872 
L 96.48 284.4 
Q 96.48 292.716 104.85 292.716 
z
" clip-path="url(#p5864f55df7)" style="fill: #e65100; opacity: 0.85; stroke: #ffffff; stroke-width: 2.5; stroke-linejoin: miter"/>
   </g>
   <g id="patch_5">
    <path d="M 132.75 381.42 
L 551.25 381.42 
Q 559.62 381.42 559.62 373.104 
L 559.62 306.576 
Q 559.62 298.26 551.25 298.26 
L 132.75 298.26 
Q 124.38 298.26 124.38 306.576 
L 124.38 373.104 
Q 124.38 381.42 132.75 381.42 
z
" clip-path="url(#p5864f55df7)" style="fill: #c62828; opacity: 0.85; stroke: #ffffff; stroke-width: 2.5; stroke-linejoin: miter"/>
   </g>
   <g id="text_1">
    <!-- Association Layer -->
    <g style="fill: #ffffff" transform="translate(277.431641 66.176406) scale(0.13 -0.13)">
     <defs>
      <path id="DejaVuSans-Bold-41" d="M 3419 850 
L 1538 850 
L 1241 0 
L 31 0 
L 1759 4666 
L 3194 4666 
L 4922 0 
L 3713 0 
L 3419 850 
z
M 1838 1716 
L 3116 1716 
L 2478 3572 
L 1838 1716 
z
" transform="scale(0.015625)"/>
      <path id="DejaVuSans-Bold-73" d="M 3272 3391 
L 3272 2541 
Q 2913 2691 2578 2766 
Q 2244 2841 1947 2841 
Q 1628 2841 1473 2761 
Q 1319 2681 1319 2516 
Q 1319 2381 1436 2309 
Q 1553 2238 1856 2203 
L 2053 2175 
Q 2913 2066 3209 1816 
Q 3506 1566 3506 1031 
Q 3506 472 3093 190 
Q 2681 -91 1863 -91 
Q 1516 -91 1145 -36 
Q 775 19 384 128 
L 384 978 
Q 719 816 1070 734 
Q 1422 653 1784 653 
Q 2113 653 2278 743 
Q 2444 834 2444 1013 
Q 2444 1163 2330 1236 
Q 2216 1309 1875 1350 
L 1678 1375 
Q 931 1469 631 1722 
Q 331 1975 331 2491 
Q 331 3047 712 3315 
Q 1094 3584 1881 3584 
Q 2191 3584 2531 3537 
Q 2872 3491 3272 3391 
z
" transform="scale(0.015625)"/>
      <path id="DejaVuSans-Bold-6f" d="M 2203 2784 
Q 1831 2784 1636 2517 
Q 1441 2250 1441 1747 
Q 1441 1244 1636 976 
Q 1831 709 2203 709 
Q 2569 709 2762 976 
Q 2956 1244 2956 1747 
Q 2956 2250 2762 2517 
Q 2569 2784 2203 2784 
z
M 2203 3584 
Q 3106 3584 3614 3096 
Q 4122 2609 4122 1747 
Q 4122 884 3614 396 
Q 3106 -91 2203 -91 
Q 1297 -91 786 396 
Q 275 884 275 1747 
Q 275 2609 786 3096 
Q 1297 3584 2203 3584 
z
" transform="scale(0.015625)"/>
      <path id="DejaVuSans-Bold-63" d="M 3366 3391 
L 3366 2478 
Q 3138 2634 2908 2709 
Q 2678 2784 2431 2784 
Q 1963 2784 1702 2511 
Q 1441 2238 1441 1747 
Q 1441 1256 1702 982 
Q 1963 709 2431 709 
Q 2694 709 2930 787 
Q 3166 866 3366 1019 
L 3366 103 
Q 3103 6 2833 -42 
Q 2563 -91 2291 -91 
Q 1344 -91 809 395 
Q 275 881 275 1747 
Q 275 2613 809 3098 
Q 1344 3584 2291 3584 
Q 2566 3584 2833 3536 
Q 3100 3488 3366 3391 
z
" transform="scale(0.015625)"/>
      <path id="DejaVuSans-Bold-69" d="M 538 3500 
L 1656 3500 
L 1656 0 
L 538 0 
L 538 3500 
z
M 538 4863 
L 1656 4863 
L 1656 3950 
L 538 3950 
L 538 4863 
z
" transform="scale(0.015625)"/>
      <path id="DejaVuSans-Bold-61" d="M 2106 1575 
Q 1756 1575 1579 1456 
Q 1403 1338 1403 1106 
Q 1403 894 1545 773 
Q 1688 653 1941 653 
Q 2256 653 2472 879 
Q 2688 1106 2688 1447 
L 2688 1575 
L 2106 1575 
z
M 3816 1997 
L 3816 0 
L 2688 0 
L 2688 519 
Q 2463 200 2181 54 
Q 1900 -91 1497 -91 
Q 953 -91 614 226 
Q 275 544 275 1050 
Q 275 1666 698 1953 
Q 1122 2241 2028 2241 
L 2688 2241 
L 2688 2328 
Q 2688 2594 2478 2717 
Q 2269 2841 1825 2841 
Q 1466 2841 1156 2769 
Q 847 2697 581 2553 
L 581 3406 
Q 941 3494 1303 3539 
Q 1666 3584 2028 3584 
Q 2975 3584 3395 3211 
Q 3816 2838 3816 1997 
z
" transform="scale(0.015625)"/>
      <path id="DejaVuSans-Bold-74" d="M 1759 4494 
L 1759 3500 
L 2913 3500 
L 2913 2700 
L 1759 2700 
L 1759 1216 
Q 1759 972 1856 886 
Q 1953 800 2241 800 
L 2816 800 
L 2816 0 
L 1856 0 
Q 1194 0 917 276 
Q 641 553 641 1216 
L 641 2700 
L 84 2700 
L 84 3500 
L 641 3500 
L 641 4494 
L 1759 4494 
z
" transform="scale(0.015625)"/>
      <path id="DejaVuSans-Bold-6e" d="M 4056 2131 
L 4056 0 
L 2931 0 
L 2931 347 
L 2931 1631 
Q 2931 2084 2911 2256 
Q 2891 2428 2841 2509 
Q 2775 2619 2662 2680 
Q 2550 2741 2406 2741 
Q 2056 2741 1856 2470 
Q 1656 2200 1656 1722 
L 1656 0 
L 538 0 
L 538 3500 
L 1656 3500 
L 1656 2988 
Q 1909 3294 2193 3439 
Q 2478 3584 2822 3584 
Q 3428 3584 3742 3212 
Q 4056 2841 4056 2131 
z
" transform="scale(0.015625)"/>
      <path id="DejaVuSans-Bold-20" transform="scale(0.015625)"/>
      <path id="DejaVuSans-Bold-4c" d="M 588 4666 
L 1791 4666 
L 1791 909 
L 3903 909 
L 3903 0 
L 588 0 
L 588 4666 
z
" transform="scale(0.015625)"/>
      <path id="DejaVuSans-Bold-79" d="M 78 3500 
L 1197 3500 
L 2138 1125 
L 2938 3500 
L 4056 3500 
L 2584 -331 
Q 2363 -916 2067 -1148 
Q 1772 -1381 1288 -1381 
L 641 -1381 
L 641 -647 
L 991 -647 
Q 1275 -647 1404 -556 
Q 1534 -466 1606 -231 
L 1638 -134 
L 78 3500 
z
" transform="scale(0.015625)"/>
      <path id="DejaVuSans-Bold-65" d="M 4031 1759 
L 4031 1441 
L 1416 1441 
Q 1456 1047 1700 850 
Q 1944 653 2381 653 
Q 2734 653 3104 758 
Q 3475 863 3866 1075 
L 3866 213 
Q 3469 63 3072 -14 
Q 2675 -91 2278 -91 
Q 1328 -91 801 392 
Q 275 875 275 1747 
Q 275 2603 792 3093 
Q 1309 3584 2216 3584 
Q 3041 3584 3536 3087 
Q 4031 2591 4031 1759 
z
M 2881 2131 
Q 2881 2450 2695 2645 
Q 2509 2841 2209 2841 
Q 1884 2841 1681 2658 
Q 1478 2475 1428 2131 
L 2881 2131 
z
" transform="scale(0.015625)"/>
      <path id="DejaVuSans-Bold-72" d="M 3138 2547 
Q 2991 2616 2845 2648 
Q 2700 2681 2553 2681 
Q 2122 2681 1889 2404 
Q 1656 2128 1656 1613 
L 1656 0 
L 538 0 
L 538 3500 
L 1656 3500 
L 1656 2925 
Q 1872 3269 2151 3426 
Q 2431 3584 2822 3584 
Q 2878 3584 2943 3579 
Q 3009 3575 3134 3559 
L 3138 2547 
z
" transform="scale(0.015625)"/>
     </defs>
     <use xlink:href="#DejaVuSans-Bold-41"/>
     <use xlink:href="#DejaVuSans-Bold-73" transform="translate(77.392578 0)"/>
     <use xlink:href="#DejaVuSans-Bold-73" transform="translate(136.914062 0)"/>
     <use xlink:href="#DejaVuSans-Bold-6f" transform="translate(196.435547 0)"/>
     <use xlink:href="#DejaVuSans-Bold-63" transform="translate(265.136719 0)"/>
     <use xlink:href="#DejaVuSans-Bold-69" transform="translate(324.414062 0)"/>
     <use xlink:href="#DejaVuSans-Bold-61" transform="translate(358.691406 0)"/>
     <use xlink:href="#DejaVuSans-Bold-74" transform="translate(426.171875 0)"/>
     <use xlink:href="#DejaVuSans-Bold-69" transform="translate(473.974609 0)"/>
     <use xlink:href="#DejaVuSans-Bold-6f" transform="translate(508.251953 0)"/>
     <use xlink:href="#DejaVuSans-Bold-6e" transform="translate(576.953125 0)"/>
     <use xlink:href="#DejaVuSans-Bold-20" transform="translate(648.144531 0)"/>
     <use xlink:href="#DejaVuSans-Bold-4c" transform="translate(682.958984 0)"/>
     <use xlink:href="#DejaVuSans-Bold-61" transform="translate(746.679688 0)"/>
     <use xlink:href="#DejaVuSans-Bold-79" transform="translate(811.035156 0)"/>
     <use xlink:href="#DejaVuSans-Bold-65" transform="translate(876.220703 0)"/>
     <use xlink:href="#DejaVuSans-Bold-72" transform="translate(944.042969 0)"/>
    </g>
   </g>
   <g id="text_2">
    <!-- Sentinel SNP  |  Credible set  |  LD structure  |  P-value &amp; effect size -->
    <g style="fill: #e0e0e0" transform="translate(190.911094 89.965969) scale(0.09 -0.09)">
     <defs>
      <path id="DejaVuSans-53" d="M 3425 4513 
L 3425 3897 
Q 3066 4069 2747 4153 
Q 2428 4238 2131 4238 
Q 1616 4238 1336 4038 
Q 1056 3838 1056 3469 
Q 1056 3159 1242 3001 
Q 1428 2844 1947 2747 
L 2328 2669 
Q 3034 2534 3370 2195 
Q 3706 1856 3706 1288 
Q 3706 609 3251 259 
Q 2797 -91 1919 -91 
Q 1588 -91 1214 -16 
Q 841 59 441 206 
L 441 856 
Q 825 641 1194 531 
Q 1563 422 1919 422 
Q 2459 422 2753 634 
Q 3047 847 3047 1241 
Q 3047 1584 2836 1778 
Q 2625 1972 2144 2069 
L 1759 2144 
Q 1053 2284 737 2584 
Q 422 2884 422 3419 
Q 422 4038 858 4394 
Q 1294 4750 2059 4750 
Q 2388 4750 2728 4690 
Q 3069 4631 3425 4513 
z
" transform="scale(0.015625)"/>
      <path id="DejaVuSans-65" d="M 3597 1894 
L 3597 1613 
L 953 1613 
Q 991 1019 1311 708 
Q 1631 397 2203 397 
Q 2534 397 2845 478 
Q 3156 559 3463 722 
L 3463 178 
Q 3153 47 2828 -22 
Q 2503 -91 2169 -91 
Q 1331 -91 842 396 
Q 353 884 353 1716 
Q 353 2575 817 3079 
Q 1281 3584 2069 3584 
Q 2775 3584 3186 3129 
Q 3597 2675 3597 1894 
z
M 3022 2063 
Q 3016 2534 2758 2815 
Q 2500 3097 2075 3097 
Q 1594 3097 1305 2825 
Q 1016 2553 972 2059 
L 3022 2063 
z
" transform="scale(0.015625)"/>
      <path id="DejaVuSans-6e" d="M 3513 2113 
L 3513 0 
L 2938 0 
L 2938 2094 
Q 2938 2591 2744 2837 
Q 2550 3084 2163 3084 
Q 1697 3084 1428 2787 
Q 1159 2491 1159 1978 
L 1159 0 
L 581 0 
L 581 3500 
L 1159 3500 
L 1159 2956 
Q 1366 3272 1645 3428 
Q 1925 3584 2291 3584 
Q 2894 3584 3203 3211 
Q 3513 2838 3513 2113 
z
" transform="scale(0.015625)"/>
      <path id="DejaVuSans-74" d="M 1172 4494 
L 1172 3500 
L 2356 3500 
L 2356 3053 
L 1172 3053 
L 1172 1153 
Q 1172 725 1289 603 
Q 1406 481 1766 481 
L 2356 481 
L 2356 0 
L 1766 0 
Q 1100 0 847 248 
Q 594 497 594 1153 
L 594 3053 
L 172 3053 
L 172 3500 
L 594 3500 
L 594 4494 
L 1172 4494 
z
" transform="scale(0.015625)"/>
      <path id="DejaVuSans-69" d="M 603 3500 
L 1178 3500 
L 1178 0 
L 603 0 
L 603 3500 
z
M 603 4863 
L 1178 4863 
L 1178 4134 
L 603 4134 
L 603 4863 
z
" transform="scale(0.015625)"/>
      <path id="DejaVuSans-6c" d="M 603 4863 
L 1178 4863 
L 1178 0 
L 603 0 
L 603 4863 
z
" transform="scale(0.015625)"/>
      <path id="DejaVuSans-20" transform="scale(0.015625)"/>
      <path id="DejaVuSans-4e" d="M 628 4666 
L 1478 4666 
L 3547 763 
L 3547 4666 
L 4159 4666 
L 4159 0 
L 3309 0 
L 1241 3903 
L 1241 0 
L 628 0 
L 628 4666 
z
" transform="scale(0.015625)"/>
      <path id="DejaVuSans-50" d="M 1259 4147 
L 1259 2394 
L 2053 2394 
Q 2494 2394 2734 2622 
Q 2975 2850 2975 3272 
Q 2975 3691 2734 3919 
Q 2494 4147 2053 4147 
L 1259 4147 
z
M 628 4666 
L 2053 4666 
Q 2838 4666 3239 4311 
Q 3641 3956 3641 3272 
Q 3641 2581 3239 2228 
Q 2838 1875 2053 1875 
L 1259 1875 
L 1259 0 
L 628 0 
L 628 4666 
z
" transform="scale(0.015625)"/>
      <path id="DejaVuSans-7c" d="M 1344 4891 
L 1344 -1509 
L 813 -1509 
L 813 4891 
L 1344 4891 
z
" transform="scale(0.015625)"/>
      <path id="DejaVuSans-43" d="M 4122 4306 
L 4122 3641 
Q 3803 3938 3442 4084 
Q 3081 4231 2675 4231 
Q 1875 4231 1450 3742 
Q 1025 3253 1025 2328 
Q 1025 1406 1450 917 
Q 1875 428 2675 428 
Q 3081 428 3442 575 
Q 3803 722 4122 1019 
L 4122 359 
Q 3791 134 3420 21 
Q 3050 -91 2638 -91 
Q 1578 -91 968 557 
Q 359 1206 359 2328 
Q 359 3453 968 4101 
Q 1578 4750 2638 4750 
Q 3056 4750 3426 4639 
Q 3797 4528 4122 4306 
z
" transform="scale(0.015625)"/>
      <path id="DejaVuSans-72" d="M 2631 2963 
Q 2534 3019 2420 3045 
Q 2306 3072 2169 3072 
Q 1681 3072 1420 2755 
Q 1159 2438 1159 1844 
L 1159 0 
L 581 0 
L 581 3500 
L 1159 3500 
L 1159 2956 
Q 1341 3275 1631 3429 
Q 1922 3584 2338 3584 
Q 2397 3584 2469 3576 
Q 2541 3569 2628 3553 
L 2631 2963 
z
" transform="scale(0.015625)"/>
      <path id="DejaVuSans-64" d="M 2906 2969 
L 2906 4863 
L 3481 4863 
L 3481 0 
L 2906 0 
L 2906 525 
Q 2725 213 2448 61 
Q 2172 -91 1784 -91 
Q 1150 -91 751 415 
Q 353 922 353 1747 
Q 353 2572 751 3078 
Q 1150 3584 1784 3584 
Q 2172 3584 2448 3432 
Q 2725 3281 2906 2969 
z
M 947 1747 
Q 947 1113 1208 752 
Q 1469 391 1925 391 
Q 2381 391 2643 752 
Q 2906 1113 2906 1747 
Q 2906 2381 2643 2742 
Q 2381 3103 1925 3103 
Q 1469 3103 1208 2742 
Q 947 2381 947 1747 
z
" transform="scale(0.015625)"/>
      <path id="DejaVuSans-62" d="M 3116 1747 
Q 3116 2381 2855 2742 
Q 2594 3103 2138 3103 
Q 1681 3103 1420 2742 
Q 1159 2381 1159 1747 
Q 1159 1113 1420 752 
Q 1681 391 2138 391 
Q 2594 391 2855 752 
Q 3116 1113 3116 1747 
z
M 1159 2969 
Q 1341 3281 1617 3432 
Q 1894 3584 2278 3584 
Q 2916 3584 3314 3078 
Q 3713 2572 3713 1747 
Q 3713 922 3314 415 
Q 2916 -91 2278 -91 
Q 1894 -91 1617 61 
Q 1341 213 1159 525 
L 1159 0 
L 581 0 
L 581 4863 
L 1159 4863 
L 1159 2969 
z
" transform="scale(0.015625)"/>
      <path id="DejaVuSans-73" d="M 2834 3397 
L 2834 2853 
Q 2591 2978 2328 3040 
Q 2066 3103 1784 3103 
Q 1356 3103 1142 2972 
Q 928 2841 928 2578 
Q 928 2378 1081 2264 
Q 1234 2150 1697 2047 
L 1894 2003 
Q 2506 1872 2764 1633 
Q 3022 1394 3022 966 
Q 3022 478 2636 193 
Q 2250 -91 1575 -91 
Q 1294 -91 989 -36 
Q 684 19 347 128 
L 347 722 
Q 666 556 975 473 
Q 1284 391 1588 391 
Q 1994 391 2212 530 
Q 2431 669 2431 922 
Q 2431 1156 2273 1281 
Q 2116 1406 1581 1522 
L 1381 1569 
Q 847 1681 609 1914 
Q 372 2147 372 2553 
Q 372 3047 722 3315 
Q 1072 3584 1716 3584 
Q 2034 3584 2315 3537 
Q 2597 3491 2834 3397 
z
" transform="scale(0.015625)"/>
      <path id="DejaVuSans-4c" d="M 628 4666 
L 1259 4666 
L 1259 531 
L 3531 531 
L 3531 0 
L 628 0 
L 628 4666 
z
" transform="scale(0.015625)"/>
      <path id="DejaVuSans-44" d="M 1259 4147 
L 1259 519 
L 2022 519 
Q 2988 519 3436 956 
Q 3884 1394 3884 2338 
Q 3884 3275 3436 3711 
Q 2988 4147 2022 4147 
L 1259 4147 
z
M 628 4666 
L 1925 4666 
Q 3281 4666 3915 4102 
Q 4550 3538 4550 2338 
Q 4550 1131 3912 565 
Q 3275 0 1925 0 
L 628 0 
L 628 4666 
z
" transform="scale(0.015625)"/>
      <path id="DejaVuSans-75" d="M 544 1381 
L 544 3500 
L 1119 3500 
L 1119 1403 
Q 1119 906 1312 657 
Q 1506 409 1894 409 
Q 2359 409 2629 706 
Q 2900 1003 2900 1516 
L 2900 3500 
L 3475 3500 
L 3475 0 
L 2900 0 
L 2900 538 
Q 2691 219 2414 64 
Q 2138 -91 1772 -91 
Q 1169 -91 856 284 
Q 544 659 544 1381 
z
M 1991 3584 
L 1991 3584 
z
" transform="scale(0.015625)"/>
      <path id="DejaVuSans-63" d="M 3122 3366 
L 3122 2828 
Q 2878 2963 2633 3030 
Q 2388 3097 2138 3097 
Q 1578 3097 1268 2742 
Q 959 2388 959 1747 
Q 959 1106 1268 751 
Q 1578 397 2138 397 
Q 2388 397 2633 464 
Q 2878 531 3122 666 
L 3122 134 
Q 2881 22 2623 -34 
Q 2366 -91 2075 -91 
Q 1284 -91 818 406 
Q 353 903 353 1747 
Q 353 2603 823 3093 
Q 1294 3584 2113 3584 
Q 2378 3584 2631 3529 
Q 2884 3475 3122 3366 
z
" transform="scale(0.015625)"/>
      <path id="DejaVuSans-2d" d="M 313 2009 
L 1997 2009 
L 1997 1497 
L 313 1497 
L 313 2009 
z
" transform="scale(0.015625)"/>
      <path id="DejaVuSans-76" d="M 191 3500 
L 800 3500 
L 1894 563 
L 2988 3500 
L 3597 3500 
L 2284 0 
L 1503 0 
L 191 3500 
z
" transform="scale(0.015625)"/>
      <path id="DejaVuSans-61" d="M 2194 1759 
Q 1497 1759 1228 1600 
Q 959 1441 959 1056 
Q 959 750 1161 570 
Q 1363 391 1709 391 
Q 2188 391 2477 730 
Q 2766 1069 2766 1631 
L 2766 1759 
L 2194 1759 
z
M 3341 1997 
L 3341 0 
L 2766 0 
L 2766 531 
Q 2569 213 2275 61 
Q 1981 -91 1556 -91 
Q 1019 -91 701 211 
Q 384 513 384 1019 
Q 384 1609 779 1909 
Q 1175 2209 1959 2209 
L 2766 2209 
L 2766 2266 
Q 2766 2663 2505 2880 
Q 2244 3097 1772 3097 
Q 1472 3097 1187 3025 
Q 903 2953 641 2809 
L 641 3341 
Q 956 3463 1253 3523 
Q 1550 3584 1831 3584 
Q 2591 3584 2966 3190 
Q 3341 2797 3341 1997 
z
" transform="scale(0.015625)"/>
      <path id="DejaVuSans-26" d="M 1556 2509 
Q 1272 2256 1139 2004 
Q 1006 1753 1006 1478 
Q 1006 1022 1337 719 
Q 1669 416 2169 416 
Q 2466 416 2725 514 
Q 2984 613 3213 813 
L 1556 2509 
z
M 1997 2859 
L 3584 1234 
Q 3769 1513 3872 1830 
Q 3975 2147 3994 2503 
L 4575 2503 
Q 4538 2091 4375 1687 
Q 4213 1284 3922 891 
L 4794 0 
L 4006 0 
L 3559 459 
Q 3234 181 2878 45 
Q 2522 -91 2113 -91 
Q 1359 -91 881 339 
Q 403 769 403 1441 
Q 403 1841 612 2192 
Q 822 2544 1241 2853 
Q 1091 3050 1012 3245 
Q 934 3441 934 3628 
Q 934 4134 1281 4442 
Q 1628 4750 2203 4750 
Q 2463 4750 2720 4694 
Q 2978 4638 3244 4525 
L 3244 3956 
Q 2972 4103 2725 4179 
Q 2478 4256 2266 4256 
Q 1938 4256 1733 4082 
Q 1528 3909 1528 3634 
Q 1528 3475 1620 3314 
Q 1713 3153 1997 2859 
z
" transform="scale(0.015625)"/>
      <path id="DejaVuSans-66" d="M 2375 4863 
L 2375 4384 
L 1825 4384 
Q 1516 4384 1395 4259 
Q 1275 4134 1275 3809 
L 1275 3500 
L 2222 3500 
L 2222 3053 
L 1275 3053 
L 1275 0 
L 697 0 
L 697 3053 
L 147 3053 
L 147 3500 
L 697 3500 
L 697 3744 
Q 697 4328 969 4595 
Q 1241 4863 1831 4863 
L 2375 4863 
z
" transform="scale(0.015625)"/>
      <path id="DejaVuSans-7a" d="M 353 3500 
L 3084 3500 
L 3084 2975 
L 922 459 
L 3084 459 
L 3084 0 
L 275 0 
L 275 525 
L 2438 3041 
L 353 3041 
L 353 3500 
z
" transform="scale(0.015625)"/>
     </defs>
     <use xlink:href="#DejaVuSans-53"/>
     <use xlink:href="#DejaVuSans-65" transform="translate(63.476562 0)"/>
     <use xlink:href="#DejaVuSans-6e" transform="translate(125 0)"/>
     <use xlink:href="#DejaVuSans-74" transform="translate(188.378906 0)"/>
     <use xlink:href="#DejaVuSans-69" transform="translate(227.587891 0)"/>
     <use xlink:href="#DejaVuSans-6e" transform="translate(255.371094 0)"/>
     <use xlink:href="#DejaVuSans-65" transform="translate(318.75 0)"/>
     <use xlink:href="#DejaVuSans-6c" transform="translate(380.273438 0)"/>
     <use xlink:href="#DejaVuSans-20" transform="translate(408.056641 0)"/>
     <use xlink:href="#DejaVuSans-53" transform="translate(439.84375 0)"/>
     <use xlink:href="#DejaVuSans-4e" transform="translate(503.320312 0)"/>
     <use xlink:href="#DejaVuSans-50" transform="translate(578.125 0)"/>
     <use xlink:href="#DejaVuSans-20" transform="translate(638.427734 0)"/>
     <use xlink:href="#DejaVuSans-20" transform="translate(670.214844 0)"/>
     <use xlink:href="#DejaVuSans-7c" transform="translate(702.001953 0)"/>
     <use xlink:href="#DejaVuSans-20" transform="translate(735.693359 0)"/>
     <use xlink:href="#DejaVuSans-20" transform="translate(767.480469 0)"/>
     <use xlink:href="#DejaVuSans-43" transform="translate(799.267578 0)"/>
     <use xlink:href="#DejaVuSans-72" transform="translate(869.091797 0)"/>
     <use xlink:href="#DejaVuSans-65" transform="translate(907.955078 0)"/>
     <use xlink:href="#DejaVuSans-64" transform="translate(969.478516 0)"/>
     <use xlink:href="#DejaVuSans-69" transform="translate(1032.955078 0)"/>
     <use xlink:href="#DejaVuSans-62" transform="translate(1060.738281 0)"/>
     <use xlink:href="#DejaVuSans-6c" transform="translate(1124.214844 0)"/>
     <use xlink:href="#DejaVuSans-65" transform="translate(1151.998047 0)"/>
     <use xlink:href="#DejaVuSans-20" transform="translate(1213.521484 0)"/>
     <use xlink:href="#DejaVuSans-73" transform="translate(1245.308594 0)"/>
     <use xlink:href="#DejaVuSans-65" transform="translate(1297.408203 0)"/>
     <use xlink:href="#DejaVuSans-74" transform="translate(1358.931641 0)"/>
     <use xlink:href="#DejaVuSans-20" transform="translate(1398.140625 0)"/>
     <use xlink:href="#DejaVuSans-20" transform="translate(1429.927734 0)"/>
     <use xlink:href="#DejaVuSans-7c" transform="translate(1461.714844 0)"/>
     <use xlink:href="#DejaVuSans-20" transform="translate(1495.40625 0)"/>
     <use xlink:href="#DejaVuSans-20" transform="translate(1527.193359 0)"/>
     <use xlink:href="#DejaVuSans-4c" transform="translate(1558.980469 0)"/>
     <use xlink:href="#DejaVuSans-44" transform="translate(1614.693359 0)"/>
     <use xlink:href="#DejaVuSans-20" transform="translate(1691.695312 0)"/>
     <use xlink:href="#DejaVuSans-73" transform="translate(1723.482422 0)"/>
     <use xlink:href="#DejaVuSans-74" transform="translate(1775.582031 0)"/>
     <use xlink:href="#DejaVuSans-72" transform="translate(1814.791016 0)"/>
     <use xlink:href="#DejaVuSans-75" transform="translate(1855.904297 0)"/>
     <use xlink:href="#DejaVuSans-63" transform="translate(1919.283203 0)"/>
     <use xlink:href="#DejaVuSans-74" transform="translate(1974.263672 0)"/>
     <use xlink:href="#DejaVuSans-75" transform="translate(2013.472656 0)"/>
     <use xlink:href="#DejaVuSans-72" transform="translate(2076.851562 0)"/>
     <use xlink:href="#DejaVuSans-65" transform="translate(2115.714844 0)"/>
     <use xlink:href="#DejaVuSans-20" transform="translate(2177.238281 0)"/>
     <use xlink:href="#DejaVuSans-20" transform="translate(2209.025391 0)"/>
     <use xlink:href="#DejaVuSans-7c" transform="translate(2240.8125 0)"/>
     <use xlink:href="#DejaVuSans-20" transform="translate(2274.503906 0)"/>
     <use xlink:href="#DejaVuSans-20" transform="translate(2306.291016 0)"/>
     <use xlink:href="#DejaVuSans-50" transform="translate(2338.078125 0)"/>
     <use xlink:href="#DejaVuSans-2d" transform="translate(2396.130859 0)"/>
     <use xlink:href="#DejaVuSans-76" transform="translate(2429.589844 0)"/>
     <use xlink:href="#DejaVuSans-61" transform="translate(2488.769531 0)"/>
     <use xlink:href="#DejaVuSans-6c" transform="translate(2550.048828 0)"/>
     <use xlink:href="#DejaVuSans-75" transform="translate(2577.832031 0)"/>
     <use xlink:href="#DejaVuSans-65" transform="translate(2641.210938 0)"/>
     <use xlink:href="#DejaVuSans-20" transform="translate(2702.734375 0)"/>
     <use xlink:href="#DejaVuSans-26" transform="translate(2734.521484 0)"/>
     <use xlink:href="#DejaVuSans-20" transform="translate(2812.5 0)"/>
     <use xlink:href="#DejaVuSans-65" transform="translate(2844.287109 0)"/>
     <use xlink:href="#DejaVuSans-66" transform="translate(2905.810547 0)"/>
     <use xlink:href="#DejaVuSans-66" transform="translate(2941.015625 0)"/>
     <use xlink:href="#DejaVuSans-65" transform="translate(2976.220703 0)"/>
     <use xlink:href="#DejaVuSans-63" transform="translate(3037.744141 0)"/>
     <use xlink:href="#DejaVuSans-74" transform="translate(3092.724609 0)"/>
     <use xlink:href="#DejaVuSans-20" transform="translate(3131.933594 0)"/>
     <use xlink:href="#DejaVuSans-73" transform="translate(3163.720703 0)"/>
     <use xlink:href="#DejaVuSans-69" transform="translate(3215.820312 0)"/>
     <use xlink:href="#DejaVuSans-7a" transform="translate(3243.603516 0)"/>
     <use xlink:href="#DejaVuSans-65" transform="translate(3296.09375 0)"/>
    </g>
   </g>
   <g id="text_3">
    <!-- Regulatory Layer -->
    <g style="fill: #ffffff" transform="translate(279.237422 154.880406) scale(0.13 -0.13)">
     <defs>
      <path id="DejaVuSans-Bold-52" d="M 2297 2597 
Q 2675 2597 2839 2737 
Q 3003 2878 3003 3200 
Q 3003 3519 2839 3656 
Q 2675 3794 2297 3794 
L 1791 3794 
L 1791 2597 
L 2297 2597 
z
M 1791 1766 
L 1791 0 
L 588 0 
L 588 4666 
L 2425 4666 
Q 3347 4666 3776 4356 
Q 4206 4047 4206 3378 
Q 4206 2916 3982 2619 
Q 3759 2322 3309 2181 
Q 3556 2125 3751 1926 
Q 3947 1728 4147 1325 
L 4800 0 
L 3519 0 
L 2950 1159 
Q 2778 1509 2601 1637 
Q 2425 1766 2131 1766 
L 1791 1766 
z
" transform="scale(0.015625)"/>
      <path id="DejaVuSans-Bold-67" d="M 2919 594 
Q 2688 288 2409 144 
Q 2131 0 1766 0 
Q 1125 0 706 504 
Q 288 1009 288 1791 
Q 288 2575 706 3076 
Q 1125 3578 1766 3578 
Q 2131 3578 2409 3434 
Q 2688 3291 2919 2981 
L 2919 3500 
L 4044 3500 
L 4044 353 
Q 4044 -491 3511 -936 
Q 2978 -1381 1966 -1381 
Q 1638 -1381 1331 -1331 
Q 1025 -1281 716 -1178 
L 716 -306 
Q 1009 -475 1290 -558 
Q 1572 -641 1856 -641 
Q 2406 -641 2662 -400 
Q 2919 -159 2919 353 
L 2919 594 
z
M 2181 2772 
Q 1834 2772 1640 2515 
Q 1447 2259 1447 1791 
Q 1447 1309 1634 1061 
Q 1822 813 2181 813 
Q 2531 813 2725 1069 
Q 2919 1325 2919 1791 
Q 2919 2259 2725 2515 
Q 2531 2772 2181 2772 
z
" transform="scale(0.015625)"/>
      <path id="DejaVuSans-Bold-75" d="M 500 1363 
L 500 3500 
L 1625 3500 
L 1625 3150 
Q 1625 2866 1622 2436 
Q 1619 2006 1619 1863 
Q 1619 1441 1641 1255 
Q 1663 1069 1716 984 
Q 1784 875 1895 815 
Q 2006 756 2150 756 
Q 2500 756 2700 1025 
Q 2900 1294 2900 1772 
L 2900 3500 
L 4019 3500 
L 4019 0 
L 2900 0 
L 2900 506 
Q 2647 200 2364 54 
Q 2081 -91 1741 -91 
Q 1134 -91 817 281 
Q 500 653 500 1363 
z
" transform="scale(0.015625)"/>
      <path id="DejaVuSans-Bold-6c" d="M 538 4863 
L 1656 4863 
L 1656 0 
L 538 0 
L 538 4863 
z
" transform="scale(0.015625)"/>
     </defs>
     <use xlink:href="#DejaVuSans-Bold-52"/>
     <use xlink:href="#DejaVuSans-Bold-65" transform="translate(77.001953 0)"/>
     <use xlink:href="#DejaVuSans-Bold-67" transform="translate(144.824219 0)"/>
     <use xlink:href="#DejaVuSans-Bold-75" transform="translate(216.40625 0)"/>
     <use xlink:href="#DejaVuSans-Bold-6c" transform="translate(287.597656 0)"/>
     <use xlink:href="#DejaVuSans-Bold-61" transform="translate(321.875 0)"/>
     <use xlink:href="#DejaVuSans-Bold-74" transform="translate(389.355469 0)"/>
     <use xlink:href="#DejaVuSans-Bold-6f" transform="translate(437.158203 0)"/>
     <use xlink:href="#DejaVuSans-Bold-72" transform="translate(505.859375 0)"/>
     <use xlink:href="#DejaVuSans-Bold-79" transform="translate(555.175781 0)"/>
     <use xlink:href="#DejaVuSans-Bold-20" transform="translate(620.361328 0)"/>
     <use xlink:href="#DejaVuSans-Bold-4c" transform="translate(655.175781 0)"/>
     <use xlink:href="#DejaVuSans-Bold-61" transform="translate(718.896484 0)"/>
     <use xlink:href="#DejaVuSans-Bold-79" transform="translate(783.251953 0)"/>
     <use xlink:href="#DejaVuSans-Bold-65" transform="translate(848.4375 0)"/>
     <use xlink:href="#DejaVuSans-Bold-72" transform="translate(916.259766 0)"/>
    </g>
   </g>
   <g id="text_4">
    <!-- eQTL  |  sQTL  |  Chromatin accessibility  |  Enhancer-gene links -->
    <g style="fill: #e0e0e0" transform="translate(199.633359 178.669969) scale(0.09 -0.09)">
     <defs>
      <path id="DejaVuSans-51" d="M 2522 4238 
Q 1834 4238 1429 3725 
Q 1025 3213 1025 2328 
Q 1025 1447 1429 934 
Q 1834 422 2522 422 
Q 3209 422 3611 934 
Q 4013 1447 4013 2328 
Q 4013 3213 3611 3725 
Q 3209 4238 2522 4238 
z
M 3406 84 
L 4238 -825 
L 3475 -825 
L 2784 -78 
Q 2681 -84 2626 -87 
Q 2572 -91 2522 -91 
Q 1538 -91 948 567 
Q 359 1225 359 2328 
Q 359 3434 948 4092 
Q 1538 4750 2522 4750 
Q 3503 4750 4090 4092 
Q 4678 3434 4678 2328 
Q 4678 1516 4351 937 
Q 4025 359 3406 84 
z
" transform="scale(0.015625)"/>
      <path id="DejaVuSans-54" d="M -19 4666 
L 3928 4666 
L 3928 4134 
L 2272 4134 
L 2272 0 
L 1638 0 
L 1638 4134 
L -19 4134 
L -19 4666 
z
" transform="scale(0.015625)"/>
      <path id="DejaVuSans-68" d="M 3513 2113 
L 3513 0 
L 2938 0 
L 2938 2094 
Q 2938 2591 2744 2837 
Q 2550 3084 2163 3084 
Q 1697 3084 1428 2787 
Q 1159 2491 1159 1978 
L 1159 0 
L 581 0 
L 581 4863 
L 1159 4863 
L 1159 2956 
Q 1366 3272 1645 3428 
Q 1925 3584 2291 3584 
Q 2894 3584 3203 3211 
Q 3513 2838 3513 2113 
z
" transform="scale(0.015625)"/>
      <path id="DejaVuSans-6f" d="M 1959 3097 
Q 1497 3097 1228 2736 
Q 959 2375 959 1747 
Q 959 1119 1226 758 
Q 1494 397 1959 397 
Q 2419 397 2687 759 
Q 2956 1122 2956 1747 
Q 2956 2369 2687 2733 
Q 2419 3097 1959 3097 
z
M 1959 3584 
Q 2709 3584 3137 3096 
Q 3566 2609 3566 1747 
Q 3566 888 3137 398 
Q 2709 -91 1959 -91 
Q 1206 -91 779 398 
Q 353 888 353 1747 
Q 353 2609 779 3096 
Q 1206 3584 1959 3584 
z
" transform="scale(0.015625)"/>
      <path id="DejaVuSans-6d" d="M 3328 2828 
Q 3544 3216 3844 3400 
Q 4144 3584 4550 3584 
Q 5097 3584 5394 3201 
Q 5691 2819 5691 2113 
L 5691 0 
L 5113 0 
L 5113 2094 
Q 5113 2597 4934 2840 
Q 4756 3084 4391 3084 
Q 3944 3084 3684 2787 
Q 3425 2491 3425 1978 
L 3425 0 
L 2847 0 
L 2847 2094 
Q 2847 2600 2669 2842 
Q 2491 3084 2119 3084 
Q 1678 3084 1418 2786 
Q 1159 2488 1159 1978 
L 1159 0 
L 581 0 
L 581 3500 
L 1159 3500 
L 1159 2956 
Q 1356 3278 1631 3431 
Q 1906 3584 2284 3584 
Q 2666 3584 2933 3390 
Q 3200 3197 3328 2828 
z
" transform="scale(0.015625)"/>
      <path id="DejaVuSans-79" d="M 2059 -325 
Q 1816 -950 1584 -1140 
Q 1353 -1331 966 -1331 
L 506 -1331 
L 506 -850 
L 844 -850 
Q 1081 -850 1212 -737 
Q 1344 -625 1503 -206 
L 1606 56 
L 191 3500 
L 800 3500 
L 1894 763 
L 2988 3500 
L 3597 3500 
L 2059 -325 
z
" transform="scale(0.015625)"/>
      <path id="DejaVuSans-45" d="M 628 4666 
L 3578 4666 
L 3578 4134 
L 1259 4134 
L 1259 2753 
L 3481 2753 
L 3481 2222 
L 1259 2222 
L 1259 531 
L 3634 531 
L 3634 0 
L 628 0 
L 628 4666 
z
" transform="scale(0.015625)"/>
      <path id="DejaVuSans-67" d="M 2906 1791 
Q 2906 2416 2648 2759 
Q 2391 3103 1925 3103 
Q 1463 3103 1205 2759 
Q 947 2416 947 1791 
Q 947 1169 1205 825 
Q 1463 481 1925 481 
Q 2391 481 2648 825 
Q 2906 1169 2906 1791 
z
M 3481 434 
Q 3481 -459 3084 -895 
Q 2688 -1331 1869 -1331 
Q 1566 -1331 1297 -1286 
Q 1028 -1241 775 -1147 
L 775 -588 
Q 1028 -725 1275 -790 
Q 1522 -856 1778 -856 
Q 2344 -856 2625 -561 
Q 2906 -266 2906 331 
L 2906 616 
Q 2728 306 2450 153 
Q 2172 0 1784 0 
Q 1141 0 747 490 
Q 353 981 353 1791 
Q 353 2603 747 3093 
Q 1141 3584 1784 3584 
Q 2172 3584 2450 3431 
Q 2728 3278 2906 2969 
L 2906 3500 
L 3481 3500 
L 3481 434 
z
" transform="scale(0.015625)"/>
      <path id="DejaVuSans-6b" d="M 581 4863 
L 1159 4863 
L 1159 1991 
L 2875 3500 
L 3609 3500 
L 1753 1863 
L 3688 0 
L 2938 0 
L 1159 1709 
L 1159 0 
L 581 0 
L 581 4863 
z
" transform="scale(0.015625)"/>
     </defs>
     <use xlink:href="#DejaVuSans-65"/>
     <use xlink:href="#DejaVuSans-51" transform="translate(61.523438 0)"/>
     <use xlink:href="#DejaVuSans-54" transform="translate(140.234375 0)"/>
     <use xlink:href="#DejaVuSans-4c" transform="translate(201.318359 0)"/>
     <use xlink:href="#DejaVuSans-20" transform="translate(257.03125 0)"/>
     <use xlink:href="#DejaVuSans-20" transform="translate(288.818359 0)"/>
     <use xlink:href="#DejaVuSans-7c" transform="translate(320.605469 0)"/>
     <use xlink:href="#DejaVuSans-20" transform="translate(354.296875 0)"/>
     <use xlink:href="#DejaVuSans-20" transform="translate(386.083984 0)"/>
     <use xlink:href="#DejaVuSans-73" transform="translate(417.871094 0)"/>
     <use xlink:href="#DejaVuSans-51" transform="translate(469.970703 0)"/>
     <use xlink:href="#DejaVuSans-54" transform="translate(548.681641 0)"/>
     <use xlink:href="#DejaVuSans-4c" transform="translate(609.765625 0)"/>
     <use xlink:href="#DejaVuSans-20" transform="translate(665.478516 0)"/>
     <use xlink:href="#DejaVuSans-20" transform="translate(697.265625 0)"/>
     <use xlink:href="#DejaVuSans-7c" transform="translate(729.052734 0)"/>
     <use xlink:href="#DejaVuSans-20" transform="translate(762.744141 0)"/>
     <use xlink:href="#DejaVuSans-20" transform="translate(794.53125 0)"/>
     <use xlink:href="#DejaVuSans-43" transform="translate(826.318359 0)"/>
     <use xlink:href="#DejaVuSans-68" transform="translate(896.142578 0)"/>
     <use xlink:href="#DejaVuSans-72" transform="translate(959.521484 0)"/>
     <use xlink:href="#DejaVuSans-6f" transform="translate(998.384766 0)"/>
     <use xlink:href="#DejaVuSans-6d" transform="translate(1059.566406 0)"/>
     <use xlink:href="#DejaVuSans-61" transform="translate(1156.978516 0)"/>
     <use xlink:href="#DejaVuSans-74" transform="translate(1218.257812 0)"/>
     <use xlink:href="#DejaVuSans-69" transform="translate(1257.466797 0)"/>
     <use xlink:href="#DejaVuSans-6e" transform="translate(1285.25 0)"/>
     <use xlink:href="#DejaVuSans-20" transform="translate(1348.628906 0)"/>
     <use xlink:href="#DejaVuSans-61" transform="translate(1380.416016 0)"/>
     <use xlink:href="#DejaVuSans-63" transform="translate(1441.695312 0)"/>
     <use xlink:href="#DejaVuSans-63" transform="translate(1496.675781 0)"/>
     <use xlink:href="#DejaVuSans-65" transform="translate(1551.65625 0)"/>
     <use xlink:href="#DejaVuSans-73" transform="translate(1613.179688 0)"/>
     <use xlink:href="#DejaVuSans-73" transform="translate(1665.279297 0)"/>
     <use xlink:href="#DejaVuSans-69" transform="translate(1717.378906 0)"/>
     <use xlink:href="#DejaVuSans-62" transform="translate(1745.162109 0)"/>
     <use xlink:href="#DejaVuSans-69" transform="translate(1808.638672 0)"/>
     <use xlink:href="#DejaVuSans-6c" transform="translate(1836.421875 0)"/>
     <use xlink:href="#DejaVuSans-69" transform="translate(1864.205078 0)"/>
     <use xlink:href="#DejaVuSans-74" transform="translate(1891.988281 0)"/>
     <use xlink:href="#DejaVuSans-79" transform="translate(1931.197266 0)"/>
     <use xlink:href="#DejaVuSans-20" transform="translate(1990.376953 0)"/>
     <use xlink:href="#DejaVuSans-20" transform="translate(2022.164062 0)"/>
     <use xlink:href="#DejaVuSans-7c" transform="translate(2053.951172 0)"/>
     <use xlink:href="#DejaVuSans-20" transform="translate(2087.642578 0)"/>
     <use xlink:href="#DejaVuSans-20" transform="translate(2119.429688 0)"/>
     <use xlink:href="#DejaVuSans-45" transform="translate(2151.216797 0)"/>
     <use xlink:href="#DejaVuSans-6e" transform="translate(2214.400391 0)"/>
     <use xlink:href="#DejaVuSans-68" transform="translate(2277.779297 0)"/>
     <use xlink:href="#DejaVuSans-61" transform="translate(2341.158203 0)"/>
     <use xlink:href="#DejaVuSans-6e" transform="translate(2402.4375 0)"/>
     <use xlink:href="#DejaVuSans-63" transform="translate(2465.816406 0)"/>
     <use xlink:href="#DejaVuSans-65" transform="translate(2520.796875 0)"/>
     <use xlink:href="#DejaVuSans-72" transform="translate(2582.320312 0)"/>
     <use xlink:href="#DejaVuSans-2d" transform="translate(2617.058594 0)"/>
     <use xlink:href="#DejaVuSans-67" transform="translate(2653.142578 0)"/>
     <use xlink:href="#DejaVuSans-65" transform="translate(2716.619141 0)"/>
     <use xlink:href="#DejaVuSans-6e" transform="translate(2778.142578 0)"/>
     <use xlink:href="#DejaVuSans-65" transform="translate(2841.521484 0)"/>
     <use xlink:href="#DejaVuSans-20" transform="translate(2903.044922 0)"/>
     <use xlink:href="#DejaVuSans-6c" transform="translate(2934.832031 0)"/>
     <use xlink:href="#DejaVuSans-69" transform="translate(2962.615234 0)"/>
     <use xlink:href="#DejaVuSans-6e" transform="translate(2990.398438 0)"/>
     <use xlink:href="#DejaVuSans-6b" transform="translate(3053.777344 0)"/>
     <use xlink:href="#DejaVuSans-73" transform="translate(3111.6875 0)"/>
    </g>
   </g>
   <g id="text_5">
    <!-- Cellular Layer -->
    <g style="fill: #ffffff" transform="translate(291.477734 243.584406) scale(0.13 -0.13)">
     <defs>
      <path id="DejaVuSans-Bold-43" d="M 4288 256 
Q 3956 84 3597 -3 
Q 3238 -91 2847 -91 
Q 1681 -91 1000 561 
Q 319 1213 319 2328 
Q 319 3447 1000 4098 
Q 1681 4750 2847 4750 
Q 3238 4750 3597 4662 
Q 3956 4575 4288 4403 
L 4288 3438 
Q 3953 3666 3628 3772 
Q 3303 3878 2944 3878 
Q 2300 3878 1931 3465 
Q 1563 3053 1563 2328 
Q 1563 1606 1931 1193 
Q 2300 781 2944 781 
Q 3303 781 3628 887 
Q 3953 994 4288 1222 
L 4288 256 
z
" transform="scale(0.015625)"/>
     </defs>
     <use xlink:href="#DejaVuSans-Bold-43"/>
     <use xlink:href="#DejaVuSans-Bold-65" transform="translate(73.388672 0)"/>
     <use xlink:href="#DejaVuSans-Bold-6c" transform="translate(141.210938 0)"/>
     <use xlink:href="#DejaVuSans-Bold-6c" transform="translate(175.488281 0)"/>
     <use xlink:href="#DejaVuSans-Bold-75" transform="translate(209.765625 0)"/>
     <use xlink:href="#DejaVuSans-Bold-6c" transform="translate(280.957031 0)"/>
     <use xlink:href="#DejaVuSans-Bold-61" transform="translate(315.234375 0)"/>
     <use xlink:href="#DejaVuSans-Bold-72" transform="translate(382.714844 0)"/>
     <use xlink:href="#DejaVuSans-Bold-20" transform="translate(432.03125 0)"/>
     <use xlink:href="#DejaVuSans-Bold-4c" transform="translate(466.845703 0)"/>
     <use xlink:href="#DejaVuSans-Bold-61" transform="translate(530.566406 0)"/>
     <use xlink:href="#DejaVuSans-Bold-79" transform="translate(594.921875 0)"/>
     <use xlink:href="#DejaVuSans-Bold-65" transform="translate(660.107422 0)"/>
     <use xlink:href="#DejaVuSans-Bold-72" transform="translate(727.929688 0)"/>
    </g>
   </g>
   <g id="text_6">
    <!-- Cell-type enrichment  |  Single-cell state  |  Microenvironment context -->
    <g style="fill: #e0e0e0" transform="translate(185.004844 267.373969) scale(0.09 -0.09)">
     <defs>
      <path id="DejaVuSans-70" d="M 1159 525 
L 1159 -1331 
L 581 -1331 
L 581 3500 
L 1159 3500 
L 1159 2969 
Q 1341 3281 1617 3432 
Q 1894 3584 2278 3584 
Q 2916 3584 3314 3078 
Q 3713 2572 3713 1747 
Q 3713 922 3314 415 
Q 2916 -91 2278 -91 
Q 1894 -91 1617 61 
Q 1341 213 1159 525 
z
M 3116 1747 
Q 3116 2381 2855 2742 
Q 2594 3103 2138 3103 
Q 1681 3103 1420 2742 
Q 1159 2381 1159 1747 
Q 1159 1113 1420 752 
Q 1681 391 2138 391 
Q 2594 391 2855 752 
Q 3116 1113 3116 1747 
z
" transform="scale(0.015625)"/>
      <path id="DejaVuSans-4d" d="M 628 4666 
L 1569 4666 
L 2759 1491 
L 3956 4666 
L 4897 4666 
L 4897 0 
L 4281 0 
L 4281 4097 
L 3078 897 
L 2444 897 
L 1241 4097 
L 1241 0 
L 628 0 
L 628 4666 
z
" transform="scale(0.015625)"/>
      <path id="DejaVuSans-78" d="M 3513 3500 
L 2247 1797 
L 3578 0 
L 2900 0 
L 1881 1375 
L 863 0 
L 184 0 
L 1544 1831 
L 300 3500 
L 978 3500 
L 1906 2253 
L 2834 3500 
L 3513 3500 
z
" transform="scale(0.015625)"/>
     </defs>
     <use xlink:href="#DejaVuSans-43"/>
     <use xlink:href="#DejaVuSans-65" transform="translate(69.824219 0)"/>
     <use xlink:href="#DejaVuSans-6c" transform="translate(131.347656 0)"/>
     <use xlink:href="#DejaVuSans-6c" transform="translate(159.130859 0)"/>
     <use xlink:href="#DejaVuSans-2d" transform="translate(186.914062 0)"/>
     <use xlink:href="#DejaVuSans-74" transform="translate(222.998047 0)"/>
     <use xlink:href="#DejaVuSans-79" transform="translate(262.207031 0)"/>
     <use xlink:href="#DejaVuSans-70" transform="translate(321.386719 0)"/>
     <use xlink:href="#DejaVuSans-65" transform="translate(384.863281 0)"/>
     <use xlink:href="#DejaVuSans-20" transform="translate(446.386719 0)"/>
     <use xlink:href="#DejaVuSans-65" transform="translate(478.173828 0)"/>
     <use xlink:href="#DejaVuSans-6e" transform="translate(539.697266 0)"/>
     <use xlink:href="#DejaVuSans-72" transform="translate(603.076172 0)"/>
     <use xlink:href="#DejaVuSans-69" transform="translate(644.189453 0)"/>
     <use xlink:href="#DejaVuSans-63" transform="translate(671.972656 0)"/>
     <use xlink:href="#DejaVuSans-68" transform="translate(726.953125 0)"/>
     <use xlink:href="#DejaVuSans-6d" transform="translate(790.332031 0)"/>
     <use xlink:href="#DejaVuSans-65" transform="translate(887.744141 0)"/>
     <use xlink:href="#DejaVuSans-6e" transform="translate(949.267578 0)"/>
     <use xlink:href="#DejaVuSans-74" transform="translate(1012.646484 0)"/>
     <use xlink:href="#DejaVuSans-20" transform="translate(1051.855469 0)"/>
     <use xlink:href="#DejaVuSans-20" transform="translate(1083.642578 0)"/>
     <use xlink:href="#DejaVuSans-7c" transform="translate(1115.429688 0)"/>
     <use xlink:href="#DejaVuSans-20" transform="translate(1149.121094 0)"/>
     <use xlink:href="#DejaVuSans-20" transform="translate(1180.908203 0)"/>
     <use xlink:href="#DejaVuSans-53" transform="translate(1212.695312 0)"/>
     <use xlink:href="#DejaVuSans-69" transform="translate(1276.171875 0)"/>
     <use xlink:href="#DejaVuSans-6e" transform="translate(1303.955078 0)"/>
     <use xlink:href="#DejaVuSans-67" transform="translate(1367.333984 0)"/>
     <use xlink:href="#DejaVuSans-6c" transform="translate(1430.810547 0)"/>
     <use xlink:href="#DejaVuSans-65" transform="translate(1458.59375 0)"/>
     <use xlink:href="#DejaVuSans-2d" transform="translate(1520.117188 0)"/>
     <use xlink:href="#DejaVuSans-63" transform="translate(1556.201172 0)"/>
     <use xlink:href="#DejaVuSans-65" transform="translate(1611.181641 0)"/>
     <use xlink:href="#DejaVuSans-6c" transform="translate(1672.705078 0)"/>
     <use xlink:href="#DejaVuSans-6c" transform="translate(1700.488281 0)"/>
     <use xlink:href="#DejaVuSans-20" transform="translate(1728.271484 0)"/>
     <use xlink:href="#DejaVuSans-73" transform="translate(1760.058594 0)"/>
     <use xlink:href="#DejaVuSans-74" transform="translate(1812.158203 0)"/>
     <use xlink:href="#DejaVuSans-61" transform="translate(1851.367188 0)"/>
     <use xlink:href="#DejaVuSans-74" transform="translate(1912.646484 0)"/>
     <use xlink:href="#DejaVuSans-65" transform="translate(1951.855469 0)"/>
     <use xlink:href="#DejaVuSans-20" transform="translate(2013.378906 0)"/>
     <use xlink:href="#DejaVuSans-20" transform="translate(2045.166016 0)"/>
     <use xlink:href="#DejaVuSans-7c" transform="translate(2076.953125 0)"/>
     <use xlink:href="#DejaVuSans-20" transform="translate(2110.644531 0)"/>
     <use xlink:href="#DejaVuSans-20" transform="translate(2142.431641 0)"/>
     <use xlink:href="#DejaVuSans-4d" transform="translate(2174.21875 0)"/>
     <use xlink:href="#DejaVuSans-69" transform="translate(2260.498047 0)"/>
     <use xlink:href="#DejaVuSans-63" transform="translate(2288.28125 0)"/>
     <use xlink:href="#DejaVuSans-72" transform="translate(2343.261719 0)"/>
     <use xlink:href="#DejaVuSans-6f" transform="translate(2382.125 0)"/>
     <use xlink:href="#DejaVuSans-65" transform="translate(2443.306641 0)"/>
     <use xlink:href="#DejaVuSans-6e" transform="translate(2504.830078 0)"/>
     <use xlink:href="#DejaVuSans-76" transform="translate(2568.208984 0)"/>
     <use xlink:href="#DejaVuSans-69" transform="translate(2627.388672 0)"/>
     <use xlink:href="#DejaVuSans-72" transform="translate(2655.171875 0)"/>
     <use xlink:href="#DejaVuSans-6f" transform="translate(2694.035156 0)"/>
     <use xlink:href="#DejaVuSans-6e" transform="translate(2755.216797 0)"/>
     <use xlink:href="#DejaVuSans-6d" transform="translate(2818.595703 0)"/>
     <use xlink:href="#DejaVuSans-65" transform="translate(2916.007812 0)"/>
     <use xlink:href="#DejaVuSans-6e" transform="translate(2977.53125 0)"/>
     <use xlink:href="#DejaVuSans-74" transform="translate(3040.910156 0)"/>
     <use xlink:href="#DejaVuSans-20" transform="translate(3080.119141 0)"/>
     <use xlink:href="#DejaVuSans-63" transform="translate(3111.90625 0)"/>
     <use xlink:href="#DejaVuSans-6f" transform="translate(3166.886719 0)"/>
     <use xlink:href="#DejaVuSans-6e" transform="translate(3228.068359 0)"/>
     <use xlink:href="#DejaVuSans-74" transform="translate(3291.447266 0)"/>
     <use xlink:href="#DejaVuSans-65" transform="translate(3330.65625 0)"/>
     <use xlink:href="#DejaVuSans-78" transform="translate(3390.429688 0)"/>
     <use xlink:href="#DejaVuSans-74" transform="translate(3449.609375 0)"/>
    </g>
   </g>
   <g id="text_7">
    <!-- Clinical Layer -->
    <g style="fill: #ffffff" transform="translate(293.010312 332.288406) scale(0.13 -0.13)">
     <use xlink:href="#DejaVuSans-Bold-43"/>
     <use xlink:href="#DejaVuSans-Bold-6c" transform="translate(73.388672 0)"/>
     <use xlink:href="#DejaVuSans-Bold-69" transform="translate(107.666016 0)"/>
     <use xlink:href="#DejaVuSans-Bold-6e" transform="translate(141.943359 0)"/>
     <use xlink:href="#DejaVuSans-Bold-69" transform="translate(213.134766 0)"/>
     <use xlink:href="#DejaVuSans-Bold-63" transform="translate(247.412109 0)"/>
     <use xlink:href="#DejaVuSans-Bold-61" transform="translate(306.689453 0)"/>
     <use xlink:href="#DejaVuSans-Bold-6c" transform="translate(374.169922 0)"/>
     <use xlink:href="#DejaVuSans-Bold-20" transform="translate(408.447266 0)"/>
     <use xlink:href="#DejaVuSans-Bold-4c" transform="translate(443.261719 0)"/>
     <use xlink:href="#DejaVuSans-Bold-61" transform="translate(506.982422 0)"/>
     <use xlink:href="#DejaVuSans-Bold-79" transform="translate(571.337891 0)"/>
     <use xlink:href="#DejaVuSans-Bold-65" transform="translate(636.523438 0)"/>
     <use xlink:href="#DejaVuSans-Bold-72" transform="translate(704.345703 0)"/>
    </g>
   </g>
   <g id="text_8">
    <!-- Druggability  |  Biomarker  |  Treatment response  |  Prognostic value -->
    <g style="fill: #e0e0e0" transform="translate(187.560703 356.077969) scale(0.09 -0.09)">
     <defs>
      <path id="DejaVuSans-42" d="M 1259 2228 
L 1259 519 
L 2272 519 
Q 2781 519 3026 730 
Q 3272 941 3272 1375 
Q 3272 1813 3026 2020 
Q 2781 2228 2272 2228 
L 1259 2228 
z
M 1259 4147 
L 1259 2741 
L 2194 2741 
Q 2656 2741 2882 2914 
Q 3109 3088 3109 3444 
Q 3109 3797 2882 3972 
Q 2656 4147 2194 4147 
L 1259 4147 
z
M 628 4666 
L 2241 4666 
Q 2963 4666 3353 4366 
Q 3744 4066 3744 3513 
Q 3744 3084 3544 2831 
Q 3344 2578 2956 2516 
Q 3422 2416 3680 2098 
Q 3938 1781 3938 1306 
Q 3938 681 3513 340 
Q 3088 0 2303 0 
L 628 0 
L 628 4666 
z
" transform="scale(0.015625)"/>
     </defs>
     <use xlink:href="#DejaVuSans-44"/>
     <use xlink:href="#DejaVuSans-72" transform="translate(77.001953 0)"/>
     <use xlink:href="#DejaVuSans-75" transform="translate(118.115234 0)"/>
     <use xlink:href="#DejaVuSans-67" transform="translate(181.494141 0)"/>
     <use xlink:href="#DejaVuSans-67" transform="translate(244.970703 0)"/>
     <use xlink:href="#DejaVuSans-61" transform="translate(308.447266 0)"/>
     <use xlink:href="#DejaVuSans-62" transform="translate(369.726562 0)"/>
     <use xlink:href="#DejaVuSans-69" transform="translate(433.203125 0)"/>
     <use xlink:href="#DejaVuSans-6c" transform="translate(460.986328 0)"/>
     <use xlink:href="#DejaVuSans-69" transform="translate(488.769531 0)"/>
     <use xlink:href="#DejaVuSans-74" transform="translate(516.552734 0)"/>
     <use xlink:href="#DejaVuSans-79" transform="translate(555.761719 0)"/>
     <use xlink:href="#DejaVuSans-20" transform="translate(614.941406 0)"/>
     <use xlink:href="#DejaVuSans-20" transform="translate(646.728516 0)"/>
     <use xlink:href="#DejaVuSans-7c" transform="translate(678.515625 0)"/>
     <use xlink:href="#DejaVuSans-20" transform="translate(712.207031 0)"/>
     <use xlink:href="#DejaVuSans-20" transform="translate(743.994141 0)"/>
     <use xlink:href="#DejaVuSans-42" transform="translate(775.78125 0)"/>
     <use xlink:href="#DejaVuSans-69" transform="translate(844.384766 0)"/>
     <use xlink:href="#DejaVuSans-6f" transform="translate(872.167969 0)"/>
     <use xlink:href="#DejaVuSans-6d" transform="translate(933.349609 0)"/>
     <use xlink:href="#DejaVuSans-61" transform="translate(1030.761719 0)"/>
     <use xlink:href="#DejaVuSans-72" transform="translate(1092.041016 0)"/>
     <use xlink:href="#DejaVuSans-6b" transform="translate(1133.154297 0)"/>
     <use xlink:href="#DejaVuSans-65" transform="translate(1187.439453 0)"/>
     <use xlink:href="#DejaVuSans-72" transform="translate(1248.962891 0)"/>
     <use xlink:href="#DejaVuSans-20" transform="translate(1290.076172 0)"/>
     <use xlink:href="#DejaVuSans-20" transform="translate(1321.863281 0)"/>
     <use xlink:href="#DejaVuSans-7c" transform="translate(1353.650391 0)"/>
     <use xlink:href="#DejaVuSans-20" transform="translate(1387.341797 0)"/>
     <use xlink:href="#DejaVuSans-20" transform="translate(1419.128906 0)"/>
     <use xlink:href="#DejaVuSans-54" transform="translate(1450.916016 0)"/>
     <use xlink:href="#DejaVuSans-72" transform="translate(1497.25 0)"/>
     <use xlink:href="#DejaVuSans-65" transform="translate(1536.113281 0)"/>
     <use xlink:href="#DejaVuSans-61" transform="translate(1597.636719 0)"/>
     <use xlink:href="#DejaVuSans-74" transform="translate(1658.916016 0)"/>
     <use xlink:href="#DejaVuSans-6d" transform="translate(1698.125 0)"/>
     <use xlink:href="#DejaVuSans-65" transform="translate(1795.537109 0)"/>
     <use xlink:href="#DejaVuSans-6e" transform="translate(1857.060547 0)"/>
     <use xlink:href="#DejaVuSans-74" transform="translate(1920.439453 0)"/>
     <use xlink:href="#DejaVuSans-20" transform="translate(1959.648438 0)"/>
     <use xlink:href="#DejaVuSans-72" transform="translate(1991.435547 0)"/>
     <use xlink:href="#DejaVuSans-65" transform="translate(2030.298828 0)"/>
     <use xlink:href="#DejaVuSans-73" transform="translate(2091.822266 0)"/>
     <use xlink:href="#DejaVuSans-70" transform="translate(2143.921875 0)"/>
     <use xlink:href="#DejaVuSans-6f" transform="translate(2207.398438 0)"/>
     <use xlink:href="#DejaVuSans-6e" transform="translate(2268.580078 0)"/>
     <use xlink:href="#DejaVuSans-73" transform="translate(2331.958984 0)"/>
     <use xlink:href="#DejaVuSans-65" transform="translate(2384.058594 0)"/>
     <use xlink:href="#DejaVuSans-20" transform="translate(2445.582031 0)"/>
     <use xlink:href="#DejaVuSans-20" transform="translate(2477.369141 0)"/>
     <use xlink:href="#DejaVuSans-7c" transform="translate(2509.15625 0)"/>
     <use xlink:href="#DejaVuSans-20" transform="translate(2542.847656 0)"/>
     <use xlink:href="#DejaVuSans-20" transform="translate(2574.634766 0)"/>
     <use xlink:href="#DejaVuSans-50" transform="translate(2606.421875 0)"/>
     <use xlink:href="#DejaVuSans-72" transform="translate(2664.974609 0)"/>
     <use xlink:href="#DejaVuSans-6f" transform="translate(2703.837891 0)"/>
     <use xlink:href="#DejaVuSans-67" transform="translate(2765.019531 0)"/>
     <use xlink:href="#DejaVuSans-6e" transform="translate(2828.496094 0)"/>
     <use xlink:href="#DejaVuSans-6f" transform="translate(2891.875 0)"/>
     <use xlink:href="#DejaVuSans-73" transform="translate(2953.056641 0)"/>
     <use xlink:href="#DejaVuSans-74" transform="translate(3005.15625 0)"/>
     <use xlink:href="#DejaVuSans-69" transform="translate(3044.365234 0)"/>
     <use xlink:href="#DejaVuSans-63" transform="translate(3072.148438 0)"/>
     <use xlink:href="#DejaVuSans-20" transform="translate(3127.128906 0)"/>
     <use xlink:href="#DejaVuSans-76" transform="translate(3158.916016 0)"/>
     <use xlink:href="#DejaVuSans-61" transform="translate(3218.095703 0)"/>
     <use xlink:href="#DejaVuSans-6c" transform="translate(3279.375 0)"/>
     <use xlink:href="#DejaVuSans-75" transform="translate(3307.158203 0)"/>
     <use xlink:href="#DejaVuSans-65" transform="translate(3370.537109 0)"/>
    </g>
   </g>
   <g id="patch_6">
    <path d="M 342 108.992496 
Q 342 118.077876 342 124.368171 
" style="fill: none; stroke: #455a64; stroke-width: 2.5; stroke-linecap: round"/>
    <path d="M 344 120.368171 
L 342 124.368171 
L 340 120.368171 
z
" style="fill: #455a64; stroke: #455a64; stroke-width: 2.5; stroke-linecap: round"/>
   </g>
   <g id="patch_7">
    <path d="M 342 197.696496 
Q 342 206.781876 342 213.072171 
" style="fill: none; stroke: #455a64; stroke-width: 2.5; stroke-linecap: round"/>
    <path d="M 344 209.072171 
L 342 213.072171 
L 340 209.072171 
z
" style="fill: #455a64; stroke: #455a64; stroke-width: 2.5; stroke-linecap: round"/>
   </g>
   <g id="patch_8">
    <path d="M 342 286.400496 
Q 342 295.485876 342 301.776171 
" style="fill: none; stroke: #455a64; stroke-width: 2.5; stroke-linecap: round"/>
    <path d="M 344 297.776171 
L 342 301.776171 
L 340 297.776171 
z
" style="fill: #455a64; stroke: #455a64; stroke-width: 2.5; stroke-linecap: round"/>
   </g>
   <g id="text_9">
    <g id="patch_9">
     <path d="M 32.111875 87.165969 
L 71.568125 87.165969 
Q 74.568125 87.165969 74.568125 84.165969 
L 74.568125 63.290031 
Q 74.568125 60.290031 71.568125 60.290031 
L 32.111875 60.290031 
Q 29.111875 60.290031 29.111875 63.290031 
L 29.111875 84.165969 
Q 29.111875 87.165969 32.111875 87.165969 
z
" style="fill: #e3f2fd; stroke: #1565c0; stroke-linejoin: miter"/>
    </g>
    <!-- GWAS -->
    <g style="fill: #1565c0" transform="translate(34.975938 70.888469) scale(0.1 -0.1)">
     <defs>
      <path id="DejaVuSans-Bold-47" d="M 4781 347 
Q 4331 128 3847 18 
Q 3363 -91 2847 -91 
Q 1681 -91 1000 561 
Q 319 1213 319 2328 
Q 319 3456 1012 4103 
Q 1706 4750 2913 4750 
Q 3378 4750 3804 4662 
Q 4231 4575 4609 4403 
L 4609 3438 
Q 4219 3659 3833 3768 
Q 3447 3878 3059 3878 
Q 2341 3878 1952 3476 
Q 1563 3075 1563 2328 
Q 1563 1588 1938 1184 
Q 2313 781 3003 781 
Q 3191 781 3352 804 
Q 3513 828 3641 878 
L 3641 1784 
L 2906 1784 
L 2906 2591 
L 4781 2591 
L 4781 347 
z
" transform="scale(0.015625)"/>
      <path id="DejaVuSans-Bold-57" d="M 191 4666 
L 1344 4666 
L 2150 1275 
L 2950 4666 
L 4109 4666 
L 4909 1275 
L 5716 4666 
L 6859 4666 
L 5759 0 
L 4372 0 
L 3525 3547 
L 2688 0 
L 1300 0 
L 191 4666 
z
" transform="scale(0.015625)"/>
      <path id="DejaVuSans-Bold-53" d="M 3834 4519 
L 3834 3531 
Q 3450 3703 3084 3790 
Q 2719 3878 2394 3878 
Q 1963 3878 1756 3759 
Q 1550 3641 1550 3391 
Q 1550 3203 1689 3098 
Q 1828 2994 2194 2919 
L 2706 2816 
Q 3484 2659 3812 2340 
Q 4141 2022 4141 1434 
Q 4141 663 3683 286 
Q 3225 -91 2284 -91 
Q 1841 -91 1394 -6 
Q 947 78 500 244 
L 500 1259 
Q 947 1022 1364 901 
Q 1781 781 2169 781 
Q 2563 781 2772 912 
Q 2981 1044 2981 1288 
Q 2981 1506 2839 1625 
Q 2697 1744 2272 1838 
L 1806 1941 
Q 1106 2091 782 2419 
Q 459 2747 459 3303 
Q 459 4000 909 4375 
Q 1359 4750 2203 4750 
Q 2588 4750 2994 4692 
Q 3400 4634 3834 4519 
z
" transform="scale(0.015625)"/>
     </defs>
     <use xlink:href="#DejaVuSans-Bold-47"/>
     <use xlink:href="#DejaVuSans-Bold-57" transform="translate(82.080078 0)"/>
     <use xlink:href="#DejaVuSans-Bold-41" transform="translate(187.882812 0)"/>
     <use xlink:href="#DejaVuSans-Bold-53" transform="translate(265.275391 0)"/>
    </g>
    <!-- Output -->
    <g style="fill: #1565c0" transform="translate(32.111875 82.086281) scale(0.1 -0.1)">
     <defs>
      <path id="DejaVuSans-Bold-4f" d="M 2719 3878 
Q 2169 3878 1866 3472 
Q 1563 3066 1563 2328 
Q 1563 1594 1866 1187 
Q 2169 781 2719 781 
Q 3272 781 3575 1187 
Q 3878 1594 3878 2328 
Q 3878 3066 3575 3472 
Q 3272 3878 2719 3878 
z
M 2719 4750 
Q 3844 4750 4481 4106 
Q 5119 3463 5119 2328 
Q 5119 1197 4481 553 
Q 3844 -91 2719 -91 
Q 1597 -91 958 553 
Q 319 1197 319 2328 
Q 319 3463 958 4106 
Q 1597 4750 2719 4750 
z
" transform="scale(0.015625)"/>
      <path id="DejaVuSans-Bold-70" d="M 1656 506 
L 1656 -1331 
L 538 -1331 
L 538 3500 
L 1656 3500 
L 1656 2988 
Q 1888 3294 2169 3439 
Q 2450 3584 2816 3584 
Q 3463 3584 3878 3070 
Q 4294 2556 4294 1747 
Q 4294 938 3878 423 
Q 3463 -91 2816 -91 
Q 2450 -91 2169 54 
Q 1888 200 1656 506 
z
M 2400 2772 
Q 2041 2772 1848 2508 
Q 1656 2244 1656 1747 
Q 1656 1250 1848 986 
Q 2041 722 2400 722 
Q 2759 722 2948 984 
Q 3138 1247 3138 1747 
Q 3138 2247 2948 2509 
Q 2759 2772 2400 2772 
z
" transform="scale(0.015625)"/>
     </defs>
     <use xlink:href="#DejaVuSans-Bold-4f"/>
     <use xlink:href="#DejaVuSans-Bold-75" transform="translate(85.009766 0)"/>
     <use xlink:href="#DejaVuSans-Bold-74" transform="translate(156.201172 0)"/>
     <use xlink:href="#DejaVuSans-Bold-70" transform="translate(204.003906 0)"/>
     <use xlink:href="#DejaVuSans-Bold-75" transform="translate(275.585938 0)"/>
     <use xlink:href="#DejaVuSans-Bold-74" transform="translate(346.777344 0)"/>
    </g>
   </g>
   <g id="text_10">
    <g id="patch_10">
     <path d="M 25.955625 353.277969 
L 77.724375 353.277969 
Q 80.724375 353.277969 80.724375 350.277969 
L 80.724375 329.402031 
Q 80.724375 326.402031 77.724375 326.402031 
L 25.955625 326.402031 
Q 22.955625 326.402031 22.955625 329.402031 
L 22.955625 350.277969 
Q 22.955625 353.277969 25.955625 353.277969 
z
" style="fill: #ffebee; stroke: #c62828; stroke-linejoin: miter"/>
    </g>
    <!-- Precision -->
    <g style="fill: #c62828" transform="translate(25.955625 337.000469) scale(0.1 -0.1)">
     <defs>
      <path id="DejaVuSans-Bold-50" d="M 588 4666 
L 2584 4666 
Q 3475 4666 3951 4270 
Q 4428 3875 4428 3144 
Q 4428 2409 3951 2014 
Q 3475 1619 2584 1619 
L 1791 1619 
L 1791 0 
L 588 0 
L 588 4666 
z
M 1791 3794 
L 1791 2491 
L 2456 2491 
Q 2806 2491 2997 2661 
Q 3188 2831 3188 3144 
Q 3188 3456 2997 3625 
Q 2806 3794 2456 3794 
L 1791 3794 
z
" transform="scale(0.015625)"/>
     </defs>
     <use xlink:href="#DejaVuSans-Bold-50"/>
     <use xlink:href="#DejaVuSans-Bold-72" transform="translate(73.291016 0)"/>
     <use xlink:href="#DejaVuSans-Bold-65" transform="translate(122.607422 0)"/>
     <use xlink:href="#DejaVuSans-Bold-63" transform="translate(190.429688 0)"/>
     <use xlink:href="#DejaVuSans-Bold-69" transform="translate(249.707031 0)"/>
     <use xlink:href="#DejaVuSans-Bold-73" transform="translate(283.984375 0)"/>
     <use xlink:href="#DejaVuSans-Bold-69" transform="translate(343.505859 0)"/>
     <use xlink:href="#DejaVuSans-Bold-6f" transform="translate(377.783203 0)"/>
     <use xlink:href="#DejaVuSans-Bold-6e" transform="translate(446.484375 0)"/>
    </g>
    <!-- Medicine -->
    <g style="fill: #c62828" transform="translate(26.550938 348.198281) scale(0.1 -0.1)">
     <defs>
      <path id="DejaVuSans-Bold-4d" d="M 588 4666 
L 2119 4666 
L 3181 2169 
L 4250 4666 
L 5778 4666 
L 5778 0 
L 4641 0 
L 4641 3413 
L 3566 897 
L 2803 897 
L 1728 3413 
L 1728 0 
L 588 0 
L 588 4666 
z
" transform="scale(0.015625)"/>
      <path id="DejaVuSans-Bold-64" d="M 2919 2988 
L 2919 4863 
L 4044 4863 
L 4044 0 
L 2919 0 
L 2919 506 
Q 2688 197 2409 53 
Q 2131 -91 1766 -91 
Q 1119 -91 703 423 
Q 288 938 288 1747 
Q 288 2556 703 3070 
Q 1119 3584 1766 3584 
Q 2128 3584 2408 3439 
Q 2688 3294 2919 2988 
z
M 2181 722 
Q 2541 722 2730 984 
Q 2919 1247 2919 1747 
Q 2919 2247 2730 2509 
Q 2541 2772 2181 2772 
Q 1825 2772 1636 2509 
Q 1447 2247 1447 1747 
Q 1447 1247 1636 984 
Q 1825 722 2181 722 
z
" transform="scale(0.015625)"/>
     </defs>
     <use xlink:href="#DejaVuSans-Bold-4d"/>
     <use xlink:href="#DejaVuSans-Bold-65" transform="translate(99.511719 0)"/>
     <use xlink:href="#DejaVuSans-Bold-64" transform="translate(167.333984 0)"/>
     <use xlink:href="#DejaVuSans-Bold-69" transform="translate(238.916016 0)"/>
     <use xlink:href="#DejaVuSans-Bold-63" transform="translate(273.193359 0)"/>
     <use xlink:href="#DejaVuSans-Bold-69" transform="translate(332.470703 0)"/>
     <use xlink:href="#DejaVuSans-Bold-6e" transform="translate(366.748047 0)"/>
     <use xlink:href="#DejaVuSans-Bold-65" transform="translate(437.939453 0)"/>
    </g>
   </g>
   <g id="patch_11">
    <path d="M 51.84 114.534973 
Q 51.84 206.783217 51.84 295.677358 
" style="fill: none; stroke: #b0bec5; stroke-width: 3; stroke-linecap: round"/>
    <path d="M 53.84 291.677358 
L 51.84 295.677358 
L 49.84 291.677358 
z
" style="fill: #b0bec5; stroke: #b0bec5; stroke-width: 3; stroke-linecap: round"/>
   </g>
   <g id="text_11">
    <!-- Common mistake: stopping at the nearest gene (Association Layer only) -->
    <g style="fill: #616161" transform="translate(169.393906 403.930672) scale(0.095 -0.095)">
     <defs>
      <path id="DejaVuSans-Oblique-43" d="M 4447 4306 
L 4319 3641 
Q 4019 3944 3683 4091 
Q 3347 4238 2956 4238 
Q 2422 4238 2017 3981 
Q 1613 3725 1319 3200 
Q 1131 2863 1032 2486 
Q 934 2109 934 1728 
Q 934 1091 1264 756 
Q 1594 422 2222 422 
Q 2656 422 3056 561 
Q 3456 700 3834 978 
L 3688 231 
Q 3316 72 2936 -9 
Q 2556 -91 2175 -91 
Q 1278 -91 773 396 
Q 269 884 269 1753 
Q 269 2309 461 2846 
Q 653 3384 1013 3828 
Q 1394 4300 1883 4525 
Q 2372 4750 3022 4750 
Q 3422 4750 3780 4639 
Q 4138 4528 4447 4306 
z
" transform="scale(0.015625)"/>
      <path id="DejaVuSans-Oblique-6f" d="M 1625 -91 
Q 1009 -91 651 289 
Q 294 669 294 1325 
Q 294 1706 417 2101 
Q 541 2497 738 2766 
Q 1047 3184 1428 3384 
Q 1809 3584 2291 3584 
Q 2888 3584 3255 3212 
Q 3622 2841 3622 2241 
Q 3622 1825 3500 1412 
Q 3378 1000 3181 728 
Q 2875 309 2494 109 
Q 2113 -91 1625 -91 
z
M 891 1344 
Q 891 869 1089 633 
Q 1288 397 1691 397 
Q 2269 397 2648 901 
Q 3028 1406 3028 2181 
Q 3028 2634 2825 2865 
Q 2622 3097 2228 3097 
Q 1903 3097 1650 2945 
Q 1397 2794 1197 2484 
Q 1050 2253 970 1956 
Q 891 1659 891 1344 
z
" transform="scale(0.015625)"/>
      <path id="DejaVuSans-Oblique-6d" d="M 5747 2113 
L 5338 0 
L 4763 0 
L 5166 2094 
Q 5191 2228 5203 2325 
Q 5216 2422 5216 2491 
Q 5216 2772 5059 2928 
Q 4903 3084 4622 3084 
Q 4203 3084 3875 2770 
Q 3547 2456 3450 1953 
L 3066 0 
L 2491 0 
L 2900 2094 
Q 2925 2209 2937 2307 
Q 2950 2406 2950 2484 
Q 2950 2769 2794 2926 
Q 2638 3084 2363 3084 
Q 1938 3084 1609 2770 
Q 1281 2456 1184 1953 
L 800 0 
L 225 0 
L 909 3500 
L 1484 3500 
L 1375 2956 
Q 1609 3263 1923 3423 
Q 2238 3584 2597 3584 
Q 2978 3584 3223 3384 
Q 3469 3184 3519 2828 
Q 3781 3197 4126 3390 
Q 4472 3584 4856 3584 
Q 5306 3584 5551 3325 
Q 5797 3066 5797 2591 
Q 5797 2488 5784 2364 
Q 5772 2241 5747 2113 
z
" transform="scale(0.015625)"/>
      <path id="DejaVuSans-Oblique-6e" d="M 3566 2113 
L 3156 0 
L 2578 0 
L 2988 2091 
Q 3016 2238 3031 2350 
Q 3047 2463 3047 2528 
Q 3047 2791 2881 2937 
Q 2716 3084 2419 3084 
Q 1956 3084 1622 2776 
Q 1288 2469 1184 1941 
L 800 0 
L 225 0 
L 903 3500 
L 1478 3500 
L 1363 2950 
Q 1603 3253 1940 3418 
Q 2278 3584 2650 3584 
Q 3113 3584 3367 3334 
Q 3622 3084 3622 2631 
Q 3622 2519 3608 2391 
Q 3594 2263 3566 2113 
z
" transform="scale(0.015625)"/>
      <path id="DejaVuSans-Oblique-20" transform="scale(0.015625)"/>
      <path id="DejaVuSans-Oblique-69" d="M 1172 4863 
L 1747 4863 
L 1606 4134 
L 1031 4134 
L 1172 4863 
z
M 909 3500 
L 1484 3500 
L 800 0 
L 225 0 
L 909 3500 
z
" transform="scale(0.015625)"/>
      <path id="DejaVuSans-Oblique-73" d="M 3200 3397 
L 3091 2853 
Q 2863 2978 2609 3040 
Q 2356 3103 2088 3103 
Q 1634 3103 1373 2948 
Q 1113 2794 1113 2528 
Q 1113 2219 1719 2053 
Q 1766 2041 1788 2034 
L 1972 1978 
Q 2547 1819 2739 1644 
Q 2931 1469 2931 1166 
Q 2931 609 2489 259 
Q 2047 -91 1331 -91 
Q 1053 -91 747 -37 
Q 441 16 72 128 
L 184 722 
Q 500 559 806 475 
Q 1113 391 1394 391 
Q 1816 391 2080 572 
Q 2344 753 2344 1031 
Q 2344 1331 1650 1516 
L 1591 1531 
L 1394 1581 
Q 956 1697 753 1886 
Q 550 2075 550 2369 
Q 550 2928 970 3256 
Q 1391 3584 2113 3584 
Q 2397 3584 2667 3537 
Q 2938 3491 3200 3397 
z
" transform="scale(0.015625)"/>
      <path id="DejaVuSans-Oblique-74" d="M 2706 3500 
L 2619 3053 
L 1472 3053 
L 1100 1153 
Q 1081 1047 1072 975 
Q 1063 903 1063 863 
Q 1063 663 1183 572 
Q 1303 481 1569 481 
L 2150 481 
L 2053 0 
L 1503 0 
Q 991 0 739 200 
Q 488 400 488 806 
Q 488 878 497 964 
Q 506 1050 525 1153 
L 897 3053 
L 409 3053 
L 500 3500 
L 978 3500 
L 1172 4494 
L 1747 4494 
L 1556 3500 
L 2706 3500 
z
" transform="scale(0.015625)"/>
      <path id="DejaVuSans-Oblique-61" d="M 3438 1997 
L 3047 0 
L 2472 0 
L 2578 531 
Q 2325 219 2001 64 
Q 1678 -91 1281 -91 
Q 834 -91 548 182 
Q 263 456 263 884 
Q 263 1497 752 1853 
Q 1241 2209 2100 2209 
L 2900 2209 
L 2931 2363 
Q 2938 2388 2941 2417 
Q 2944 2447 2944 2509 
Q 2944 2788 2717 2942 
Q 2491 3097 2081 3097 
Q 1800 3097 1504 3025 
Q 1209 2953 897 2809 
L 997 3341 
Q 1322 3463 1633 3523 
Q 1944 3584 2234 3584 
Q 2853 3584 3176 3315 
Q 3500 3047 3500 2534 
Q 3500 2431 3484 2292 
Q 3469 2153 3438 1997 
z
M 2816 1759 
L 2241 1759 
Q 1534 1759 1195 1570 
Q 856 1381 856 984 
Q 856 709 1029 553 
Q 1203 397 1509 397 
Q 1978 397 2328 733 
Q 2678 1069 2791 1631 
L 2816 1759 
z
" transform="scale(0.015625)"/>
      <path id="DejaVuSans-Oblique-6b" d="M 1172 4863 
L 1747 4863 
L 1197 2028 
L 3169 3500 
L 3916 3500 
L 1716 1825 
L 3322 0 
L 2625 0 
L 1131 1709 
L 800 0 
L 225 0 
L 1172 4863 
z
" transform="scale(0.015625)"/>
      <path id="DejaVuSans-Oblique-65" d="M 3078 2063 
Q 3088 2113 3092 2166 
Q 3097 2219 3097 2272 
Q 3097 2653 2873 2875 
Q 2650 3097 2266 3097 
Q 1838 3097 1509 2826 
Q 1181 2556 1013 2059 
L 3078 2063 
z
M 3578 1613 
L 903 1613 
Q 884 1494 878 1425 
Q 872 1356 872 1306 
Q 872 872 1139 634 
Q 1406 397 1894 397 
Q 2269 397 2603 481 
Q 2938 566 3225 728 
L 3116 159 
Q 2806 34 2476 -28 
Q 2147 -91 1806 -91 
Q 1078 -91 686 257 
Q 294 606 294 1247 
Q 294 1794 489 2264 
Q 684 2734 1063 3103 
Q 1306 3334 1642 3459 
Q 1978 3584 2356 3584 
Q 2950 3584 3301 3228 
Q 3653 2872 3653 2272 
Q 3653 2128 3634 1964 
Q 3616 1800 3578 1613 
z
" transform="scale(0.015625)"/>
      <path id="DejaVuSans-Oblique-3a" d="M 978 3309 
L 1638 3309 
L 1484 2516 
L 825 2516 
L 978 3309 
z
M 488 794 
L 1147 794 
L 991 0 
L 331 0 
L 488 794 
z
" transform="scale(0.015625)"/>
      <path id="DejaVuSans-Oblique-70" d="M 3175 2156 
Q 3175 2616 2975 2859 
Q 2775 3103 2400 3103 
Q 2144 3103 1911 2972 
Q 1678 2841 1497 2591 
Q 1319 2344 1212 1994 
Q 1106 1644 1106 1300 
Q 1106 863 1306 627 
Q 1506 391 1875 391 
Q 2147 391 2380 519 
Q 2613 647 2778 891 
Q 2956 1147 3065 1494 
Q 3175 1841 3175 2156 
z
M 1394 2969 
Q 1625 3272 1939 3428 
Q 2253 3584 2638 3584 
Q 3175 3584 3472 3232 
Q 3769 2881 3769 2247 
Q 3769 1728 3584 1258 
Q 3400 788 3053 416 
Q 2822 169 2531 39 
Q 2241 -91 1919 -91 
Q 1547 -91 1294 64 
Q 1041 219 916 525 
L 556 -1331 
L -19 -1331 
L 922 3500 
L 1497 3500 
L 1394 2969 
z
" transform="scale(0.015625)"/>
      <path id="DejaVuSans-Oblique-67" d="M 3816 3500 
L 3219 434 
Q 3047 -456 2561 -893 
Q 2075 -1331 1253 -1331 
Q 950 -1331 690 -1286 
Q 431 -1241 206 -1147 
L 313 -588 
Q 525 -725 762 -790 
Q 1000 -856 1269 -856 
Q 1816 -856 2167 -557 
Q 2519 -259 2631 300 
L 2681 563 
Q 2441 288 2122 144 
Q 1803 0 1434 0 
Q 903 0 598 351 
Q 294 703 294 1319 
Q 294 1803 478 2267 
Q 663 2731 997 3091 
Q 1219 3328 1514 3456 
Q 1809 3584 2131 3584 
Q 2484 3584 2746 3420 
Q 3009 3256 3138 2956 
L 3238 3500 
L 3816 3500 
z
M 2950 2216 
Q 2950 2641 2750 2872 
Q 2550 3103 2181 3103 
Q 1953 3103 1747 3012 
Q 1541 2922 1394 2759 
Q 1156 2491 1023 2127 
Q 891 1763 891 1375 
Q 891 944 1092 712 
Q 1294 481 1672 481 
Q 2219 481 2584 976 
Q 2950 1472 2950 2216 
z
" transform="scale(0.015625)"/>
      <path id="DejaVuSans-Oblique-68" d="M 3566 2113 
L 3156 0 
L 2578 0 
L 2988 2091 
Q 3016 2238 3031 2350 
Q 3047 2463 3047 2528 
Q 3047 2791 2881 2937 
Q 2716 3084 2419 3084 
Q 1956 3084 1617 2771 
Q 1278 2459 1178 1941 
L 800 0 
L 225 0 
L 1172 4863 
L 1747 4863 
L 1375 2950 
Q 1594 3244 1934 3414 
Q 2275 3584 2650 3584 
Q 3113 3584 3367 3334 
Q 3622 3084 3622 2631 
Q 3622 2519 3608 2391 
Q 3594 2263 3566 2113 
z
" transform="scale(0.015625)"/>
      <path id="DejaVuSans-Oblique-72" d="M 2853 2969 
Q 2766 3016 2653 3041 
Q 2541 3066 2413 3066 
Q 1953 3066 1609 2717 
Q 1266 2369 1153 1784 
L 800 0 
L 225 0 
L 909 3500 
L 1484 3500 
L 1375 2956 
Q 1603 3259 1920 3421 
Q 2238 3584 2597 3584 
Q 2691 3584 2781 3573 
Q 2872 3563 2963 3538 
L 2853 2969 
z
" transform="scale(0.015625)"/>
      <path id="DejaVuSans-Oblique-28" d="M 2731 4856 
Q 1903 3822 1495 2892 
Q 1088 1963 1088 1100 
Q 1088 606 1206 120 
Q 1325 -366 1563 -844 
L 1063 -844 
Q 775 -306 634 201 
Q 494 709 494 1197 
Q 494 2125 923 3036 
Q 1353 3947 2222 4856 
L 2731 4856 
z
" transform="scale(0.015625)"/>
      <path id="DejaVuSans-Oblique-41" d="M 2356 4666 
L 3072 4666 
L 3938 0 
L 3278 0 
L 3084 1197 
L 984 1197 
L 325 0 
L -341 0 
L 2356 4666 
z
M 2584 4044 
L 1275 1722 
L 2988 1722 
L 2584 4044 
z
" transform="scale(0.015625)"/>
      <path id="DejaVuSans-Oblique-63" d="M 3431 3366 
L 3316 2797 
Q 3109 2947 2876 3022 
Q 2644 3097 2394 3097 
Q 2119 3097 1870 3000 
Q 1622 2903 1453 2725 
Q 1184 2453 1037 2087 
Q 891 1722 891 1331 
Q 891 859 1127 628 
Q 1363 397 1844 397 
Q 2081 397 2348 469 
Q 2616 541 2906 684 
L 2797 116 
Q 2547 13 2283 -39 
Q 2019 -91 1741 -91 
Q 1044 -91 669 257 
Q 294 606 294 1253 
Q 294 1797 489 2255 
Q 684 2713 1069 3078 
Q 1331 3328 1684 3456 
Q 2038 3584 2456 3584 
Q 2700 3584 2940 3529 
Q 3181 3475 3431 3366 
z
" transform="scale(0.015625)"/>
      <path id="DejaVuSans-Oblique-4c" d="M 1075 4666 
L 1709 4666 
L 909 525 
L 3181 525 
L 3078 0 
L 172 0 
L 1075 4666 
z
" transform="scale(0.015625)"/>
      <path id="DejaVuSans-Oblique-79" d="M 1588 -325 
Q 1188 -997 936 -1164 
Q 684 -1331 294 -1331 
L -159 -1331 
L -63 -850 
L 269 -850 
Q 509 -850 678 -719 
Q 847 -588 1056 -206 
L 1234 128 
L 459 3500 
L 1069 3500 
L 1650 819 
L 3256 3500 
L 3859 3500 
L 1588 -325 
z
" transform="scale(0.015625)"/>
      <path id="DejaVuSans-Oblique-6c" d="M 1172 4863 
L 1747 4863 
L 800 0 
L 225 0 
L 1172 4863 
z
" transform="scale(0.015625)"/>
      <path id="DejaVuSans-Oblique-29" d="M -397 -844 
Q 434 191 840 1120 
Q 1247 2050 1247 2913 
Q 1247 3406 1130 3892 
Q 1013 4378 775 4856 
L 1275 4856 
Q 1563 4316 1703 3812 
Q 1844 3309 1844 2822 
Q 1844 1891 1411 973 
Q 978 56 116 -844 
L -397 -844 
z
" transform="scale(0.015625)"/>
     </defs>
     <use xlink:href="#DejaVuSans-Oblique-43"/>
     <use xlink:href="#DejaVuSans-Oblique-6f" transform="translate(69.824219 0)"/>
     <use xlink:href="#DejaVuSans-Oblique-6d" transform="translate(131.005859 0)"/>
     <use xlink:href="#DejaVuSans-Oblique-6d" transform="translate(228.417969 0)"/>
     <use xlink:href="#DejaVuSans-Oblique-6f" transform="translate(325.830078 0)"/>
     <use xlink:href="#DejaVuSans-Oblique-6e" transform="translate(387.011719 0)"/>
     <use xlink:href="#DejaVuSans-Oblique-20" transform="translate(450.390625 0)"/>
     <use xlink:href="#DejaVuSans-Oblique-6d" transform="translate(482.177734 0)"/>
     <use xlink:href="#DejaVuSans-Oblique-69" transform="translate(579.589844 0)"/>
     <use xlink:href="#DejaVuSans-Oblique-73" transform="translate(607.373047 0)"/>
     <use xlink:href="#DejaVuSans-Oblique-74" transform="translate(659.472656 0)"/>
     <use xlink:href="#DejaVuSans-Oblique-61" transform="translate(698.681641 0)"/>
     <use xlink:href="#DejaVuSans-Oblique-6b" transform="translate(759.960938 0)"/>
     <use xlink:href="#DejaVuSans-Oblique-65" transform="translate(817.871094 0)"/>
     <use xlink:href="#DejaVuSans-Oblique-3a" transform="translate(879.394531 0)"/>
     <use xlink:href="#DejaVuSans-Oblique-20" transform="translate(913.085938 0)"/>
     <use xlink:href="#DejaVuSans-Oblique-73" transform="translate(944.873047 0)"/>
     <use xlink:href="#DejaVuSans-Oblique-74" transform="translate(996.972656 0)"/>
     <use xlink:href="#DejaVuSans-Oblique-6f" transform="translate(1036.181641 0)"/>
     <use xlink:href="#DejaVuSans-Oblique-70" transform="translate(1097.363281 0)"/>
     <use xlink:href="#DejaVuSans-Oblique-70" transform="translate(1160.839844 0)"/>
     <use xlink:href="#DejaVuSans-Oblique-69" transform="translate(1224.316406 0)"/>
     <use xlink:href="#DejaVuSans-Oblique-6e" transform="translate(1252.099609 0)"/>
     <use xlink:href="#DejaVuSans-Oblique-67" transform="translate(1315.478516 0)"/>
     <use xlink:href="#DejaVuSans-Oblique-20" transform="translate(1378.955078 0)"/>
     <use xlink:href="#DejaVuSans-Oblique-61" transform="translate(1410.742188 0)"/>
     <use xlink:href="#DejaVuSans-Oblique-74" transform="translate(1472.021484 0)"/>
     <use xlink:href="#DejaVuSans-Oblique-20" transform="translate(1511.230469 0)"/>
     <use xlink:href="#DejaVuSans-Oblique-74" transform="translate(1543.017578 0)"/>
     <use xlink:href="#DejaVuSans-Oblique-68" transform="translate(1582.226562 0)"/>
     <use xlink:href="#DejaVuSans-Oblique-65" transform="translate(1645.605469 0)"/>
     <use xlink:href="#DejaVuSans-Oblique-20" transform="translate(1707.128906 0)"/>
     <use xlink:href="#DejaVuSans-Oblique-6e" transform="translate(1738.916016 0)"/>
     <use xlink:href="#DejaVuSans-Oblique-65" transform="translate(1802.294922 0)"/>
     <use xlink:href="#DejaVuSans-Oblique-61" transform="translate(1863.818359 0)"/>
     <use xlink:href="#DejaVuSans-Oblique-72" transform="translate(1925.097656 0)"/>
     <use xlink:href="#DejaVuSans-Oblique-65" transform="translate(1966.210938 0)"/>
     <use xlink:href="#DejaVuSans-Oblique-73" transform="translate(2027.734375 0)"/>
     <use xlink:href="#DejaVuSans-Oblique-74" transform="translate(2079.833984 0)"/>
     <use xlink:href="#DejaVuSans-Oblique-20" transform="translate(2119.042969 0)"/>
     <use xlink:href="#DejaVuSans-Oblique-67" transform="translate(2150.830078 0)"/>
     <use xlink:href="#DejaVuSans-Oblique-65" transform="translate(2214.306641 0)"/>
     <use xlink:href="#DejaVuSans-Oblique-6e" transform="translate(2275.830078 0)"/>
     <use xlink:href="#DejaVuSans-Oblique-65" transform="translate(2339.208984 0)"/>
     <use xlink:href="#DejaVuSans-Oblique-20" transform="translate(2400.732422 0)"/>
     <use xlink:href="#DejaVuSans-Oblique-28" transform="translate(2432.519531 0)"/>
     <use xlink:href="#DejaVuSans-Oblique-41" transform="translate(2471.533203 0)"/>
     <use xlink:href="#DejaVuSans-Oblique-73" transform="translate(2539.941406 0)"/>
     <use xlink:href="#DejaVuSans-Oblique-73" transform="translate(2592.041016 0)"/>
     <use xlink:href="#DejaVuSans-Oblique-6f" transform="translate(2644.140625 0)"/>
     <use xlink:href="#DejaVuSans-Oblique-63" transform="translate(2705.322266 0)"/>
     <use xlink:href="#DejaVuSans-Oblique-69" transform="translate(2760.302734 0)"/>
     <use xlink:href="#DejaVuSans-Oblique-61" transform="translate(2788.085938 0)"/>
     <use xlink:href="#DejaVuSans-Oblique-74" transform="translate(2849.365234 0)"/>
     <use xlink:href="#DejaVuSans-Oblique-69" transform="translate(2888.574219 0)"/>
     <use xlink:href="#DejaVuSans-Oblique-6f" transform="translate(2916.357422 0)"/>
     <use xlink:href="#DejaVuSans-Oblique-6e" transform="translate(2977.539062 0)"/>
     <use xlink:href="#DejaVuSans-Oblique-20" transform="translate(3040.917969 0)"/>
     <use xlink:href="#DejaVuSans-Oblique-4c" transform="translate(3072.705078 0)"/>
     <use xlink:href="#DejaVuSans-Oblique-61" transform="translate(3128.417969 0)"/>
     <use xlink:href="#DejaVuSans-Oblique-79" transform="translate(3189.697266 0)"/>
     <use xlink:href="#DejaVuSans-Oblique-65" transform="translate(3248.876953 0)"/>
     <use xlink:href="#DejaVuSans-Oblique-72" transform="translate(3310.400391 0)"/>
     <use xlink:href="#DejaVuSans-Oblique-20" transform="translate(3351.513672 0)"/>
     <use xlink:href="#DejaVuSans-Oblique-6f" transform="translate(3383.300781 0)"/>
     <use xlink:href="#DejaVuSans-Oblique-6e" transform="translate(3444.482422 0)"/>
     <use xlink:href="#DejaVuSans-Oblique-6c" transform="translate(3507.861328 0)"/>
     <use xlink:href="#DejaVuSans-Oblique-79" transform="translate(3535.644531 0)"/>
     <use xlink:href="#DejaVuSans-Oblique-29" transform="translate(3594.824219 0)"/>
    </g>
    <!-- Useful path: locus → regulatory mechanism → cell-state context → clinical actionability -->
    <g style="fill: #616161" transform="translate(136.168398 417.456) scale(0.095 -0.095)">
     <defs>
      <path id="DejaVuSans-Oblique-55" d="M 991 4666 
L 1625 4666 
L 1075 1831 
Q 1041 1641 1027 1517 
Q 1013 1394 1013 1300 
Q 1013 869 1253 645 
Q 1494 422 1959 422 
Q 2563 422 2898 753 
Q 3234 1084 3378 1831 
L 3928 4666 
L 4563 4666 
L 4000 1753 
Q 3816 809 3300 359 
Q 2784 -91 1888 -91 
Q 1188 -91 780 261 
Q 372 613 372 1216 
Q 372 1325 387 1461 
Q 403 1597 434 1753 
L 991 4666 
z
" transform="scale(0.015625)"/>
      <path id="DejaVuSans-Oblique-66" d="M 3059 4863 
L 2969 4384 
L 2419 4384 
Q 2106 4384 1964 4261 
Q 1822 4138 1753 3809 
L 1691 3500 
L 2638 3500 
L 2553 3053 
L 1606 3053 
L 1013 0 
L 434 0 
L 1031 3053 
L 481 3053 
L 563 3500 
L 1113 3500 
L 1159 3744 
Q 1278 4363 1576 4613 
Q 1875 4863 2516 4863 
L 3059 4863 
z
" transform="scale(0.015625)"/>
      <path id="DejaVuSans-Oblique-75" d="M 428 1388 
L 838 3500 
L 1416 3500 
L 1006 1409 
Q 975 1256 961 1147 
Q 947 1038 947 966 
Q 947 700 1109 554 
Q 1272 409 1569 409 
Q 2031 409 2368 721 
Q 2706 1034 2809 1563 
L 3194 3500 
L 3769 3500 
L 3091 0 
L 2516 0 
L 2631 550 
Q 2388 244 2052 76 
Q 1716 -91 1338 -91 
Q 878 -91 622 161 
Q 366 413 366 863 
Q 366 956 381 1097 
Q 397 1238 428 1388 
z
" transform="scale(0.015625)"/>
      <path id="DejaVuSans-Oblique-2192" d="M 5050 2147 
L 5050 1866 
L 3822 638 
L 3447 1013 
L 4175 1741 
L 366 1741 
L 366 2272 
L 4175 2272 
L 3447 3000 
L 3822 3375 
L 5050 2147 
z
" transform="scale(0.015625)"/>
      <path id="DejaVuSans-Oblique-2d" d="M 391 2009 
L 2075 2009 
L 1978 1497 
L 288 1497 
L 391 2009 
z
" transform="scale(0.015625)"/>
      <path id="DejaVuSans-Oblique-78" d="M 3841 3500 
L 2234 1784 
L 3219 0 
L 2559 0 
L 1819 1388 
L 531 0 
L -166 0 
L 1556 1844 
L 641 3500 
L 1300 3500 
L 1972 2234 
L 3144 3500 
L 3841 3500 
z
" transform="scale(0.015625)"/>
      <path id="DejaVuSans-Oblique-62" d="M 3169 2138 
Q 3169 2591 2961 2847 
Q 2753 3103 2388 3103 
Q 2122 3103 1889 2973 
Q 1656 2844 1484 2597 
Q 1303 2338 1198 1995 
Q 1094 1653 1094 1313 
Q 1094 881 1298 636 
Q 1503 391 1863 391 
Q 2134 391 2365 517 
Q 2597 644 2772 891 
Q 2950 1147 3059 1487 
Q 3169 1828 3169 2138 
z
M 1381 2969 
Q 1594 3256 1914 3420 
Q 2234 3584 2584 3584 
Q 3122 3584 3439 3221 
Q 3756 2859 3756 2241 
Q 3756 1734 3570 1259 
Q 3384 784 3041 416 
Q 2816 172 2522 40 
Q 2228 -91 1906 -91 
Q 1566 -91 1316 65 
Q 1066 222 909 531 
L 806 0 
L 231 0 
L 1178 4863 
L 1753 4863 
L 1381 2969 
z
" transform="scale(0.015625)"/>
     </defs>
     <use xlink:href="#DejaVuSans-Oblique-55"/>
     <use xlink:href="#DejaVuSans-Oblique-73" transform="translate(73.193359 0)"/>
     <use xlink:href="#DejaVuSans-Oblique-65" transform="translate(125.292969 0)"/>
     <use xlink:href="#DejaVuSans-Oblique-66" transform="translate(186.816406 0)"/>
     <use xlink:href="#DejaVuSans-Oblique-75" transform="translate(222.021484 0)"/>
     <use xlink:href="#DejaVuSans-Oblique-6c" transform="translate(285.400391 0)"/>
     <use xlink:href="#DejaVuSans-Oblique-20" transform="translate(313.183594 0)"/>
     <use xlink:href="#DejaVuSans-Oblique-70" transform="translate(344.970703 0)"/>
     <use xlink:href="#DejaVuSans-Oblique-61" transform="translate(408.447266 0)"/>
     <use xlink:href="#DejaVuSans-Oblique-74" transform="translate(469.726562 0)"/>
     <use xlink:href="#DejaVuSans-Oblique-68" transform="translate(508.935547 0)"/>
     <use xlink:href="#DejaVuSans-Oblique-3a" transform="translate(572.314453 0)"/>
     <use xlink:href="#DejaVuSans-Oblique-20" transform="translate(606.005859 0)"/>
     <use xlink:href="#DejaVuSans-Oblique-6c" transform="translate(637.792969 0)"/>
     <use xlink:href="#DejaVuSans-Oblique-6f" transform="translate(665.576172 0)"/>
     <use xlink:href="#DejaVuSans-Oblique-63" transform="translate(726.757812 0)"/>
     <use xlink:href="#DejaVuSans-Oblique-75" transform="translate(781.738281 0)"/>
     <use xlink:href="#DejaVuSans-Oblique-73" transform="translate(845.117188 0)"/>
     <use xlink:href="#DejaVuSans-Oblique-20" transform="translate(897.216797 0)"/>
     <use xlink:href="#DejaVuSans-Oblique-2192" transform="translate(929.003906 0)"/>
     <use xlink:href="#DejaVuSans-Oblique-20" transform="translate(1012.792969 0)"/>
     <use xlink:href="#DejaVuSans-Oblique-72" transform="translate(1044.580078 0)"/>
     <use xlink:href="#DejaVuSans-Oblique-65" transform="translate(1085.693359 0)"/>
     <use xlink:href="#DejaVuSans-Oblique-67" transform="translate(1147.216797 0)"/>
     <use xlink:href="#DejaVuSans-Oblique-75" transform="translate(1210.693359 0)"/>
     <use xlink:href="#DejaVuSans-Oblique-6c" transform="translate(1274.072266 0)"/>
     <use xlink:href="#DejaVuSans-Oblique-61" transform="translate(1301.855469 0)"/>
     <use xlink:href="#DejaVuSans-Oblique-74" transform="translate(1363.134766 0)"/>
     <use xlink:href="#DejaVuSans-Oblique-6f" transform="translate(1402.34375 0)"/>
     <use xlink:href="#DejaVuSans-Oblique-72" transform="translate(1463.525391 0)"/>
     <use xlink:href="#DejaVuSans-Oblique-79" transform="translate(1504.638672 0)"/>
     <use xlink:href="#DejaVuSans-Oblique-20" transform="translate(1563.818359 0)"/>
     <use xlink:href="#DejaVuSans-Oblique-6d" transform="translate(1595.605469 0)"/>
     <use xlink:href="#DejaVuSans-Oblique-65" transform="translate(1693.017578 0)"/>
     <use xlink:href="#DejaVuSans-Oblique-63" transform="translate(1754.541016 0)"/>
     <use xlink:href="#DejaVuSans-Oblique-68" transform="translate(1809.521484 0)"/>
     <use xlink:href="#DejaVuSans-Oblique-61" transform="translate(1872.900391 0)"/>
     <use xlink:href="#DejaVuSans-Oblique-6e" transform="translate(1934.179688 0)"/>
     <use xlink:href="#DejaVuSans-Oblique-69" transform="translate(1997.558594 0)"/>
     <use xlink:href="#DejaVuSans-Oblique-73" transform="translate(2025.341797 0)"/>
     <use xlink:href="#DejaVuSans-Oblique-6d" transform="translate(2077.441406 0)"/>
     <use xlink:href="#DejaVuSans-Oblique-20" transform="translate(2174.853516 0)"/>
     <use xlink:href="#DejaVuSans-Oblique-2192" transform="translate(2206.640625 0)"/>
     <use xlink:href="#DejaVuSans-Oblique-20" transform="translate(2290.429688 0)"/>
     <use xlink:href="#DejaVuSans-Oblique-63" transform="translate(2322.216797 0)"/>
     <use xlink:href="#DejaVuSans-Oblique-65" transform="translate(2377.197266 0)"/>
     <use xlink:href="#DejaVuSans-Oblique-6c" transform="translate(2438.720703 0)"/>
     <use xlink:href="#DejaVuSans-Oblique-6c" transform="translate(2466.503906 0)"/>
     <use xlink:href="#DejaVuSans-Oblique-2d" transform="translate(2494.287109 0)"/>
     <use xlink:href="#DejaVuSans-Oblique-73" transform="translate(2530.371094 0)"/>
     <use xlink:href="#DejaVuSans-Oblique-74" transform="translate(2582.470703 0)"/>
     <use xlink:href="#DejaVuSans-Oblique-61" transform="translate(2621.679688 0)"/>
     <use xlink:href="#DejaVuSans-Oblique-74" transform="translate(2682.958984 0)"/>
     <use xlink:href="#DejaVuSans-Oblique-65" transform="translate(2722.167969 0)"/>
     <use xlink:href="#DejaVuSans-Oblique-20" transform="translate(2783.691406 0)"/>
     <use xlink:href="#DejaVuSans-Oblique-63" transform="translate(2815.478516 0)"/>
     <use xlink:href="#DejaVuSans-Oblique-6f" transform="translate(2870.458984 0)"/>
     <use xlink:href="#DejaVuSans-Oblique-6e" transform="translate(2931.640625 0)"/>
     <use xlink:href="#DejaVuSans-Oblique-74" transform="translate(2995.019531 0)"/>
     <use xlink:href="#DejaVuSans-Oblique-65" transform="translate(3034.228516 0)"/>
     <use xlink:href="#DejaVuSans-Oblique-78" transform="translate(3095.751953 0)"/>
     <use xlink:href="#DejaVuSans-Oblique-74" transform="translate(3154.931641 0)"/>
     <use xlink:href="#DejaVuSans-Oblique-20" transform="translate(3194.140625 0)"/>
     <use xlink:href="#DejaVuSans-Oblique-2192" transform="translate(3225.927734 0)"/>
     <use xlink:href="#DejaVuSans-Oblique-20" transform="translate(3309.716797 0)"/>
     <use xlink:href="#DejaVuSans-Oblique-63" transform="translate(3341.503906 0)"/>
     <use xlink:href="#DejaVuSans-Oblique-6c" transform="translate(3396.484375 0)"/>
     <use xlink:href="#DejaVuSans-Oblique-69" transform="translate(3424.267578 0)"/>
     <use xlink:href="#DejaVuSans-Oblique-6e" transform="translate(3452.050781 0)"/>
     <use xlink:href="#DejaVuSans-Oblique-69" transform="translate(3515.429688 0)"/>
     <use xlink:href="#DejaVuSans-Oblique-63" transform="translate(3543.212891 0)"/>
     <use xlink:href="#DejaVuSans-Oblique-61" transform="translate(3598.193359 0)"/>
     <use xlink:href="#DejaVuSans-Oblique-6c" transform="translate(3659.472656 0)"/>
     <use xlink:href="#DejaVuSans-Oblique-20" transform="translate(3687.255859 0)"/>
     <use xlink:href="#DejaVuSans-Oblique-61" transform="translate(3719.042969 0)"/>
     <use xlink:href="#DejaVuSans-Oblique-63" transform="translate(3780.322266 0)"/>
     <use xlink:href="#DejaVuSans-Oblique-74" transform="translate(3835.302734 0)"/>
     <use xlink:href="#DejaVuSans-Oblique-69" transform="translate(3874.511719 0)"/>
     <use xlink:href="#DejaVuSans-Oblique-6f" transform="translate(3902.294922 0)"/>
     <use xlink:href="#DejaVuSans-Oblique-6e" transform="translate(3963.476562 0)"/>
     <use xlink:href="#DejaVuSans-Oblique-61" transform="translate(4026.855469 0)"/>
     <use xlink:href="#DejaVuSans-Oblique-62" transform="translate(4088.134766 0)"/>
     <use xlink:href="#DejaVuSans-Oblique-69" transform="translate(4151.611328 0)"/>
     <use xlink:href="#DejaVuSans-Oblique-6c" transform="translate(4179.394531 0)"/>
     <use xlink:href="#DejaVuSans-Oblique-69" transform="translate(4207.177734 0)"/>
     <use xlink:href="#DejaVuSans-Oblique-74" transform="translate(4234.960938 0)"/>
     <use xlink:href="#DejaVuSans-Oblique-79" transform="translate(4274.169922 0)"/>
    </g>
   </g>
  </g>
 </g>
 <defs>
  <clipPath id="p5864f55df7">
   <rect x="7.2" y="7.2" width="669.6" height="443.52"/>
  </clipPath>
 </defs>
</svg>
